  0
SECTION
  2
HEADER
  9
$ACADVER
  1
AC1006
  9
$DWGCODEPAGE
  3
ansi_1252
  9
$INSBASE
 10
0.0
 20
0.0
 30
0.0
  9
$EXTMIN
 10
-177.7676
 20
-113.3481
  9
$EXTMAX
 10
173.7504
 20
123.0001
  9
$LIMMIN
 10
0.0
 20
0.0
  9
$LIMMAX
 10
12.0
 20
9.0
  9
$ORTHOMODE
 70
     0
  9
$REGENMODE
 70
     1
  9
$FILLMODE
 70
     1
  9
$QTEXTMODE
 70
     0
  9
$MIRRTEXT
 70
     1
  9
$DRAGMODE
 70
     2
  9
$LTSCALE
 40
1.0
  9
$OSMODE
 70
    37
  9
$ATTMODE
 70
     1
  9
$TEXTSIZE
 40
0.2
  9
$TRACEWID
 40
0.05
  9
$TEXTSTYLE
  7
STANDARD
  9
$CLAYER
  8
0
  9
$CELTYPE
  6
BYLAYER
  9
$CECOLOR
 62
   256
  9
$DIMSCALE
 40
1.0
  9
$DIMASZ
 40
0.18
  9
$DIMEXO
 40
0.0625
  9
$DIMDLI
 40
0.38
  9
$DIMRND
 40
0.0
  9
$DIMDLE
 40
0.0
  9
$DIMEXE
 40
0.18
  9
$DIMTP
 40
0.0
  9
$DIMTM
 40
0.0
  9
$DIMTXT
 40
0.18
  9
$DIMCEN
 40
0.09
  9
$DIMTSZ
 40
0.0
  9
$DIMTOL
 70
     0
  9
$DIMLIM
 70
     0
  9
$DIMTIH
 70
     1
  9
$DIMTOH
 70
     1
  9
$DIMSE1
 70
     0
  9
$DIMSE2
 70
     0
  9
$DIMTAD
 70
     0
  9
$DIMZIN
 70
     0
  9
$DIMBLK
  1

  9
$DIMASO
 70
     1
  9
$DIMSHO
 70
     1
  9
$DIMPOST
  1

  9
$DIMAPOST
  1

  9
$DIMALT
 70
     0
  9
$DIMALTD
 70
     2
  9
$DIMALTF
 40
25.4
  9
$DIMLFAC
 40
1.0
  9
$DIMTOFL
 70
     0
  9
$DIMTVP
 40
0.0
  9
$DIMTIX
 70
     0
  9
$DIMSOXD
 70
     0
  9
$DIMSAH
 70
     0
  9
$DIMBLK1
  1

  9
$DIMBLK2
  1

  9
$LUNITS
 70
     2
  9
$LUPREC
 70
     4
  9
$SKETCHINC
 40
0.1
  9
$FILLETRAD
 40
0.5
  9
$AUNITS
 70
     0
  9
$AUPREC
 70
     0
  9
$MENU
  1
.
  9
$ELEVATION
 40
0.0
  9
$THICKNESS
 40
0.0
  9
$LIMCHECK
 70
     0
  9
$CHAMFERA
 40
0.5
  9
$CHAMFERB
 40
0.5
  9
$SKPOLY
 70
     0
  9
$TDCREATE
 40
2456932.787739745
  9
$TDUPDATE
 40
2456932.787739757
  9
$TDINDWG
 40
0.0000000116
  9
$TDUSRTIMER
 40
0.0000000116
  9
$USRTIMER
 70
     1
  9
$ANGBASE
 50
0.0
  9
$ANGDIR
 70
     0
  9
$PDMODE
 70
     0
  9
$PDSIZE
 40
0.0
  9
$PLINEWID
 40
0.0
  9
$COORDS
 70
     1
  9
$SPLFRAME
 70
     0
  9
$SPLINETYPE
 70
     6
  9
$SPLINESEGS
 70
     8
  9
$ATTDIA
 70
     0
  9
$ATTREQ
 70
     1
  9
$HANDLING
 70
     1
  9
$HANDSEED
  5
37A
  9
$SURFTAB1
 70
     6
  9
$SURFTAB2
 70
     6
  9
$SURFTYPE
 70
     6
  9
$SURFU
 70
     6
  9
$SURFV
 70
     6
  9
$UCSNAME
  2

  9
$UCSORG
 10
0.0
 20
0.0
 30
0.0
  9
$UCSXDIR
 10
1.0
 20
0.0
 30
0.0
  9
$UCSYDIR
 10
0.0
 20
1.0
 30
0.0
  9
$USERI1
 70
     0
  9
$USERI2
 70
     0
  9
$USERI3
 70
     0
  9
$USERI4
 70
     0
  9
$USERI5
 70
     0
  9
$USERR1
 40
0.0
  9
$USERR2
 40
0.0
  9
$USERR3
 40
0.0
  9
$USERR4
 40
0.0
  9
$USERR5
 40
0.0
  9
$WORLDVIEW
 70
     1
  0
ENDSEC
  0
SECTION
  2
TABLES
  0
TABLE
  2
VPORT
 70
     1
  0
VPORT
  2
*ACTIVE
 70
     0
 10
0.0
 20
0.0
 11
1.0
 21
1.0
 12
10.42990654205607
 22
4.5
 13
0.0
 23
0.0
 14
0.5
 24
0.5
 15
0.5
 25
0.5
 16
0.0
 26
0.0
 36
1.0
 17
0.0
 27
0.0
 37
0.0
 40
9.0
 41
1.972972972850329
 42
50.0
 43
0.0
 44
0.0
 50
0.0
 51
0.0
 71
     0
 72
   100
 73
     1
 74
     3
 75
     0
 76
     0
 77
     0
 78
     0
  0
ENDTAB
  0
TABLE
  2
LTYPE
 70
     1
  0
LTYPE
  2
CONTINUOUS
 70
     0
  3
Solid line
 72
    65
 73
     0
 40
0.0
  0
ENDTAB
  0
TABLE
  2
LAYER
 70
     2
  0
LAYER
  2
0
 70
     0
 62
     7
  6
CONTINUOUS
  0
LAYER
  2
LAYER_1
 70
     0
 62
     7
  6
CONTINUOUS
  0
ENDTAB
  0
TABLE
  2
STYLE
 70
     1
  0
STYLE
  2
STANDARD
 70
     0
 40
0.0
 41
1.0
 50
0.0
 71
     0
 42
0.2
  3
txt
  4

  0
ENDTAB
  0
TABLE
  2
VIEW
 70
     0
  0
ENDTAB
  0
TABLE
  2
UCS
 70
     0
  0
ENDTAB
  0
ENDSEC
  0
SECTION
  2
BLOCKS
  0
ENDSEC
  0
SECTION
  2
ENTITIES
  0
POLYLINE
  5
41
  8
LAYER_1
 62
   242
 66
     1
 10
0.0
 20
0.0
 30
0.0
 70
     1
  0
VERTEX
  5
6E
  8
LAYER_1
 62
   242
 10
136.1971
 20
25.0192
 30
0.0
  0
VERTEX
  5
6F
  8
LAYER_1
 62
   242
 10
135.8069193559678
 20
24.98077056080646
 30
0.0
  0
VERTEX
  5
70
  8
LAYER_1
 62
   242
 10
135.4317331352698
 20
24.86695906502257
 30
0.0
  0
VERTEX
  5
71
  8
LAYER_1
 62
   242
 10
135.0859595339608
 20
24.68213922460509
 30
0.0
  0
VERTEX
  5
72
  8
LAYER_1
 62
   242
 10
134.7828864376269
 20
24.4334135623731
 30
0.0
  0
VERTEX
  5
73
  8
LAYER_1
 62
   242
 10
134.5341607753949
 20
24.13034046603921
 30
0.0
  0
VERTEX
  5
74
  8
LAYER_1
 62
   242
 10
134.3493409349774
 20
23.78456686473018
 30
0.0
  0
VERTEX
  5
75
  8
LAYER_1
 62
   242
 10
134.2355294391936
 20
23.40938064403226
 30
0.0
  0
VERTEX
  5
76
  8
LAYER_1
 62
   242
 10
134.1971
 20
23.0192
 30
0.0
  0
VERTEX
  5
77
  8
LAYER_1
 62
   242
 10
134.2355294391936
 20
22.62901935596775
 30
0.0
  0
VERTEX
  5
78
  8
LAYER_1
 62
   242
 10
134.3493409349774
 20
22.25383313526982
 30
0.0
  0
VERTEX
  5
79
  8
LAYER_1
 62
   242
 10
134.5341607753949
 20
21.9080595339608
 30
0.0
  0
VERTEX
  5
7A
  8
LAYER_1
 62
   242
 10
134.7828864376269
 20
21.60498643762691
 30
0.0
  0
VERTEX
  5
7B
  8
LAYER_1
 62
   242
 10
135.0859595339608
 20
21.35626077539491
 30
0.0
  0
VERTEX
  5
7C
  8
LAYER_1
 62
   242
 10
135.4317331352698
 20
21.17144093497743
 30
0.0
  0
VERTEX
  5
7D
  8
LAYER_1
 62
   242
 10
135.8069193559678
 20
21.05762943919354
 30
0.0
  0
VERTEX
  5
7E
  8
LAYER_1
 62
   242
 10
136.1971
 20
21.0192
 30
0.0
  0
VERTEX
  5
7F
  8
LAYER_1
 62
   242
 10
136.5872806440323
 20
21.05762943919354
 30
0.0
  0
VERTEX
  5
80
  8
LAYER_1
 62
   242
 10
136.9624668647302
 20
21.17144093497743
 30
0.0
  0
VERTEX
  5
81
  8
LAYER_1
 62
   242
 10
137.3082404660392
 20
21.35626077539491
 30
0.0
  0
VERTEX
  5
82
  8
LAYER_1
 62
   242
 10
137.6113135623731
 20
21.60498643762691
 30
0.0
  0
VERTEX
  5
83
  8
LAYER_1
 62
   242
 10
137.8600392246051
 20
21.9080595339608
 30
0.0
  0
VERTEX
  5
84
  8
LAYER_1
 62
   242
 10
138.0448590650226
 20
22.25383313526983
 30
0.0
  0
VERTEX
  5
85
  8
LAYER_1
 62
   242
 10
138.1586705608065
 20
22.62901935596775
 30
0.0
  0
VERTEX
  5
86
  8
LAYER_1
 62
   242
 10
138.1971
 20
23.0192
 30
0.0
  0
VERTEX
  5
87
  8
LAYER_1
 62
   242
 10
138.1586705608065
 20
23.40938064403226
 30
0.0
  0
VERTEX
  5
88
  8
LAYER_1
 62
   242
 10
138.0448590650226
 20
23.78456686473019
 30
0.0
  0
VERTEX
  5
89
  8
LAYER_1
 62
   242
 10
137.8600392246051
 20
24.13034046603921
 30
0.0
  0
VERTEX
  5
8A
  8
LAYER_1
 62
   242
 10
137.6113135623731
 20
24.4334135623731
 30
0.0
  0
VERTEX
  5
8B
  8
LAYER_1
 62
   242
 10
137.3082404660392
 20
24.68213922460509
 30
0.0
  0
VERTEX
  5
8C
  8
LAYER_1
 62
   242
 10
136.9624668647302
 20
24.86695906502258
 30
0.0
  0
VERTEX
  5
8D
  8
LAYER_1
 62
   242
 10
136.5872806440323
 20
24.98077056080646
 30
0.0
  0
SEQEND
  5
8E
  8
LAYER_1
 62
   242
  0
POLYLINE
  5
42
  8
LAYER_1
 62
   242
 66
     1
 10
0.0
 20
0.0
 30
0.0
 70
     1
  0
VERTEX
  5
8F
  8
LAYER_1
 62
   242
 10
-144.8029
 20
29.0192
 30
0.0
  0
VERTEX
  5
90
  8
LAYER_1
 62
   242
 10
-145.1930806440322
 20
28.98077056080646
 30
0.0
  0
VERTEX
  5
91
  8
LAYER_1
 62
   242
 10
-145.5682668647302
 20
28.86695906502257
 30
0.0
  0
VERTEX
  5
92
  8
LAYER_1
 62
   242
 10
-145.9140404660392
 20
28.68213922460509
 30
0.0
  0
VERTEX
  5
93
  8
LAYER_1
 62
   242
 10
-146.2171135623731
 20
28.4334135623731
 30
0.0
  0
VERTEX
  5
94
  8
LAYER_1
 62
   242
 10
-146.4658392246051
 20
28.13034046603921
 30
0.0
  0
VERTEX
  5
95
  8
LAYER_1
 62
   242
 10
-146.6506590650226
 20
27.78456686473018
 30
0.0
  0
VERTEX
  5
96
  8
LAYER_1
 62
   242
 10
-146.7644705608064
 20
27.40938064403226
 30
0.0
  0
VERTEX
  5
97
  8
LAYER_1
 62
   242
 10
-146.8029
 20
27.0192
 30
0.0
  0
VERTEX
  5
98
  8
LAYER_1
 62
   242
 10
-146.7644705608064
 20
26.62901935596775
 30
0.0
  0
VERTEX
  5
99
  8
LAYER_1
 62
   242
 10
-146.6506590650226
 20
26.25383313526982
 30
0.0
  0
VERTEX
  5
9A
  8
LAYER_1
 62
   242
 10
-146.4658392246051
 20
25.9080595339608
 30
0.0
  0
VERTEX
  5
9B
  8
LAYER_1
 62
   242
 10
-146.2171135623731
 20
25.60498643762691
 30
0.0
  0
VERTEX
  5
9C
  8
LAYER_1
 62
   242
 10
-145.9140404660392
 20
25.35626077539491
 30
0.0
  0
VERTEX
  5
9D
  8
LAYER_1
 62
   242
 10
-145.5682668647302
 20
25.17144093497743
 30
0.0
  0
VERTEX
  5
9E
  8
LAYER_1
 62
   242
 10
-145.1930806440322
 20
25.05762943919354
 30
0.0
  0
VERTEX
  5
9F
  8
LAYER_1
 62
   242
 10
-144.8029
 20
25.0192
 30
0.0
  0
VERTEX
  5
A0
  8
LAYER_1
 62
   242
 10
-144.4127193559677
 20
25.05762943919354
 30
0.0
  0
VERTEX
  5
A1
  8
LAYER_1
 62
   242
 10
-144.0375331352698
 20
25.17144093497743
 30
0.0
  0
VERTEX
  5
A2
  8
LAYER_1
 62
   242
 10
-143.6917595339608
 20
25.35626077539491
 30
0.0
  0
VERTEX
  5
A3
  8
LAYER_1
 62
   242
 10
-143.3886864376269
 20
25.60498643762691
 30
0.0
  0
VERTEX
  5
A4
  8
LAYER_1
 62
   242
 10
-143.1399607753949
 20
25.9080595339608
 30
0.0
  0
VERTEX
  5
A5
  8
LAYER_1
 62
   242
 10
-142.9551409349774
 20
26.25383313526983
 30
0.0
  0
VERTEX
  5
A6
  8
LAYER_1
 62
   242
 10
-142.8413294391935
 20
26.62901935596775
 30
0.0
  0
VERTEX
  5
A7
  8
LAYER_1
 62
   242
 10
-142.8029
 20
27.0192
 30
0.0
  0
VERTEX
  5
A8
  8
LAYER_1
 62
   242
 10
-142.8413294391935
 20
27.40938064403226
 30
0.0
  0
VERTEX
  5
A9
  8
LAYER_1
 62
   242
 10
-142.9551409349774
 20
27.78456686473019
 30
0.0
  0
VERTEX
  5
AA
  8
LAYER_1
 62
   242
 10
-143.1399607753949
 20
28.13034046603921
 30
0.0
  0
VERTEX
  5
AB
  8
LAYER_1
 62
   242
 10
-143.3886864376269
 20
28.4334135623731
 30
0.0
  0
VERTEX
  5
AC
  8
LAYER_1
 62
   242
 10
-143.6917595339608
 20
28.68213922460509
 30
0.0
  0
VERTEX
  5
AD
  8
LAYER_1
 62
   242
 10
-144.0375331352698
 20
28.86695906502258
 30
0.0
  0
VERTEX
  5
AE
  8
LAYER_1
 62
   242
 10
-144.4127193559677
 20
28.98077056080646
 30
0.0
  0
SEQEND
  5
AF
  8
LAYER_1
 62
   242
  0
POLYLINE
  5
43
  8
LAYER_1
 62
   242
 66
     1
 10
0.0
 20
0.0
 30
0.0
 70
     1
  0
VERTEX
  5
B0
  8
LAYER_1
 62
   242
 10
-18.9261
 20
4.3283
 30
0.0
  0
VERTEX
  5
B1
  8
LAYER_1
 62
   242
 10
-13.9261
 20
4.3283
 30
0.0
  0
VERTEX
  5
B2
  8
LAYER_1
 62
   242
 10
-13.9261
 20
-5.6717
 30
0.0
  0
VERTEX
  5
B3
  8
LAYER_1
 62
   242
 10
-18.9261
 20
-5.6717
 30
0.0
  0
VERTEX
  5
B4
  8
LAYER_1
 62
   242
 10
-18.9261
 20
4.3283
 30
0.0
  0
SEQEND
  5
B5
  8
LAYER_1
 62
   242
  0
POLYLINE
  5
44
  8
LAYER_1
 62
   242
 66
     1
 10
0.0
 20
0.0
 30
0.0
 70
     1
  0
VERTEX
  5
B6
  8
LAYER_1
 62
   242
 10
11.0739
 20
4.3283
 30
0.0
  0
VERTEX
  5
B7
  8
LAYER_1
 62
   242
 10
16.0739
 20
4.3283
 30
0.0
  0
VERTEX
  5
B8
  8
LAYER_1
 62
   242
 10
16.0739
 20
-5.6717
 30
0.0
  0
VERTEX
  5
B9
  8
LAYER_1
 62
   242
 10
11.0739
 20
-5.6717
 30
0.0
  0
VERTEX
  5
BA
  8
LAYER_1
 62
   242
 10
11.0739
 20
4.3283
 30
0.0
  0
SEQEND
  5
BB
  8
LAYER_1
 62
   242
  0
POLYLINE
  5
45
  8
LAYER_1
 62
   242
 66
     1
 10
0.0
 20
0.0
 30
0.0
 70
     1
  0
VERTEX
  5
BC
  8
LAYER_1
 62
   242
 10
-18.9261
 20
-33.1717
 30
0.0
  0
VERTEX
  5
BD
  8
LAYER_1
 62
   242
 10
-13.9261
 20
-33.1717
 30
0.0
  0
VERTEX
  5
BE
  8
LAYER_1
 62
   242
 10
-13.9261
 20
-43.1717
 30
0.0
  0
VERTEX
  5
BF
  8
LAYER_1
 62
   242
 10
-18.9261
 20
-43.1717
 30
0.0
  0
VERTEX
  5
C0
  8
LAYER_1
 62
   242
 10
-18.9261
 20
-33.1717
 30
0.0
  0
SEQEND
  5
C1
  8
LAYER_1
 62
   242
  0
POLYLINE
  5
46
  8
LAYER_1
 62
   242
 66
     1
 10
0.0
 20
0.0
 30
0.0
 70
     1
  0
VERTEX
  5
C2
  8
LAYER_1
 62
   242
 10
11.0739
 20
-33.1717
 30
0.0
  0
VERTEX
  5
C3
  8
LAYER_1
 62
   242
 10
16.0739
 20
-33.1717
 30
0.0
  0
VERTEX
  5
C4
  8
LAYER_1
 62
   242
 10
16.0739
 20
-43.1717
 30
0.0
  0
VERTEX
  5
C5
  8
LAYER_1
 62
   242
 10
11.0739
 20
-43.1717
 30
0.0
  0
VERTEX
  5
C6
  8
LAYER_1
 62
   242
 10
11.0739
 20
-33.1717
 30
0.0
  0
SEQEND
  5
C7
  8
LAYER_1
 62
   242
  0
POLYLINE
  5
47
  8
LAYER_1
 62
   242
 66
     1
 10
0.0
 20
0.0
 30
0.0
 70
     1
  0
VERTEX
  5
C8
  8
LAYER_1
 62
   242
 10
-18.9261
 20
-70.6717
 30
0.0
  0
VERTEX
  5
C9
  8
LAYER_1
 62
   242
 10
-13.9261
 20
-70.6717
 30
0.0
  0
VERTEX
  5
CA
  8
LAYER_1
 62
   242
 10
-13.9261
 20
-80.6717
 30
0.0
  0
VERTEX
  5
CB
  8
LAYER_1
 62
   242
 10
-18.9261
 20
-80.6717
 30
0.0
  0
VERTEX
  5
CC
  8
LAYER_1
 62
   242
 10
-18.9261
 20
-70.6717
 30
0.0
  0
SEQEND
  5
CD
  8
LAYER_1
 62
   242
  0
POLYLINE
  5
48
  8
LAYER_1
 62
   242
 66
     1
 10
0.0
 20
0.0
 30
0.0
 70
     1
  0
VERTEX
  5
CE
  8
LAYER_1
 62
   242
 10
11.0739
 20
-70.6717
 30
0.0
  0
VERTEX
  5
CF
  8
LAYER_1
 62
   242
 10
16.0739
 20
-70.6717
 30
0.0
  0
VERTEX
  5
D0
  8
LAYER_1
 62
   242
 10
16.0739
 20
-80.6717
 30
0.0
  0
VERTEX
  5
D1
  8
LAYER_1
 62
   242
 10
11.0739
 20
-80.6717
 30
0.0
  0
VERTEX
  5
D2
  8
LAYER_1
 62
   242
 10
11.0739
 20
-70.6717
 30
0.0
  0
SEQEND
  5
D3
  8
LAYER_1
 62
   242
  0
POLYLINE
  5
49
  8
LAYER_1
 62
   242
 66
     1
 10
0.0
 20
0.0
 30
0.0
  0
VERTEX
  5
D4
  8
LAYER_1
 62
   242
 10
173.574
 20
36.8283
 30
0.0
  0
VERTEX
  5
D5
  8
LAYER_1
 62
   242
 10
166.074
 20
36.8283
 30
0.0
  0
VERTEX
  5
D6
  8
LAYER_1
 62
   242
 10
166.074
 20
40.3283
 30
0.0
  0
VERTEX
  5
D7
  8
LAYER_1
 62
   242
 10
156.074
 20
40.3283
 30
0.0
  0
VERTEX
  5
D8
  8
LAYER_1
 62
   242
 10
156.074
 20
36.8283
 30
0.0
  0
VERTEX
  5
D9
  8
LAYER_1
 62
   242
 10
148.574
 20
36.8283
 30
0.0
  0
VERTEX
  5
DA
  8
LAYER_1
 62
   242
 10
148.574
 20
15.8283
 30
0.0
  0
VERTEX
  5
DB
  8
LAYER_1
 62
   242
 10
144.574
 20
15.8283
 30
0.0
  0
VERTEX
  5
DC
  8
LAYER_1
 62
   242
 10
144.574
 20
36.8283
 30
0.0
  0
VERTEX
  5
DD
  8
LAYER_1
 62
   242
 10
133.574
 20
36.8283
 30
0.0
  0
VERTEX
  5
DE
  8
LAYER_1
 62
   242
 10
133.574
 20
15.8283
 30
0.0
  0
VERTEX
  5
DF
  8
LAYER_1
 62
   242
 10
129.574
 20
15.8283
 30
0.0
  0
VERTEX
  5
E0
  8
LAYER_1
 62
   242
 10
129.574
 20
36.8283
 30
0.0
  0
VERTEX
  5
E1
  8
LAYER_1
 62
   242
 10
105.074
 20
36.8283
 30
0.0
  0
VERTEX
  5
E2
  8
LAYER_1
 62
   242
 10
105.074
 20
32.8738
 30
0.0
  0
VERTEX
  5
E3
  8
LAYER_1
 62
   242
 10
106.124
 20
32.8738
 30
0.0
  0
VERTEX
  5
E4
  8
LAYER_1
 62
   242
 10
106.124
 20
30.7738
 30
0.0
  0
VERTEX
  5
E5
  8
LAYER_1
 62
   242
 10
105.074
 20
30.7738
 30
0.0
  0
VERTEX
  5
E6
  8
LAYER_1
 62
   242
 10
105.074
 20
26.8283
 30
0.0
  0
VERTEX
  5
E7
  8
LAYER_1
 62
   242
 10
102.074
 20
26.8283
 30
0.0
  0
VERTEX
  5
E8
  8
LAYER_1
 62
   242
 10
102.074
 20
30.7738
 30
0.0
  0
VERTEX
  5
E9
  8
LAYER_1
 62
   242
 10
101.024
 20
30.7738
 30
0.0
  0
VERTEX
  5
EA
  8
LAYER_1
 62
   242
 10
101.024
 20
32.8738
 30
0.0
  0
VERTEX
  5
EB
  8
LAYER_1
 62
   242
 10
102.074
 20
32.8738
 30
0.0
  0
VERTEX
  5
EC
  8
LAYER_1
 62
   242
 10
102.074
 20
36.8283
 30
0.0
  0
VERTEX
  5
ED
  8
LAYER_1
 62
   242
 10
86.2733
 20
36.8283
 30
0.0
  0
VERTEX
  5
EE
  8
LAYER_1
 62
   242
 10
86.2733
 20
11.8283
 30
0.0
  0
VERTEX
  5
EF
  8
LAYER_1
 62
   242
 10
82.7733
 20
11.8283
 30
0.0
  0
VERTEX
  5
F0
  8
LAYER_1
 62
   242
 10
82.7733
 20
36.8283
 30
0.0
  0
VERTEX
  5
F1
  8
LAYER_1
 62
   242
 10
74.5235
 20
36.8283
 30
0.0
  0
VERTEX
  5
F2
  8
LAYER_1
 62
   242
 10
70.074
 20
36.8283
 30
0.0
  0
VERTEX
  5
F3
  8
LAYER_1
 62
   242
 10
70.074
 20
32.8738
 30
0.0
  0
VERTEX
  5
F4
  8
LAYER_1
 62
   242
 10
71.124
 20
32.8738
 30
0.0
  0
VERTEX
  5
F5
  8
LAYER_1
 62
   242
 10
71.124
 20
30.7738
 30
0.0
  0
VERTEX
  5
F6
  8
LAYER_1
 62
   242
 10
70.074
 20
30.7738
 30
0.0
  0
VERTEX
  5
F7
  8
LAYER_1
 62
   242
 10
70.074
 20
26.8283
 30
0.0
  0
VERTEX
  5
F8
  8
LAYER_1
 62
   242
 10
67.074
 20
26.8283
 30
0.0
  0
VERTEX
  5
F9
  8
LAYER_1
 62
   242
 10
67.074
 20
30.7738
 30
0.0
  0
VERTEX
  5
FA
  8
LAYER_1
 62
   242
 10
66.024
 20
30.7738
 30
0.0
  0
VERTEX
  5
FB
  8
LAYER_1
 62
   242
 10
66.024
 20
32.8738
 30
0.0
  0
VERTEX
  5
FC
  8
LAYER_1
 62
   242
 10
67.074
 20
32.8738
 30
0.0
  0
VERTEX
  5
FD
  8
LAYER_1
 62
   242
 10
67.074
 20
36.8283
 30
0.0
  0
VERTEX
  5
FE
  8
LAYER_1
 62
   242
 10
59.5235
 20
36.8283
 30
0.0
  0
VERTEX
  5
FF
  8
LAYER_1
 62
   242
 10
59.5235
 20
40.3283
 30
0.0
  0
VERTEX
  5
100
  8
LAYER_1
 62
   242
 10
39.5235
 20
40.3283
 30
0.0
  0
VERTEX
  5
101
  8
LAYER_1
 62
   242
 10
39.5235
 20
36.8283
 30
0.0
  0
VERTEX
  5
102
  8
LAYER_1
 62
   242
 10
35.074
 20
36.8283
 30
0.0
  0
VERTEX
  5
103
  8
LAYER_1
 62
   242
 10
35.074
 20
32.8738
 30
0.0
  0
VERTEX
  5
104
  8
LAYER_1
 62
   242
 10
36.124
 20
32.8738
 30
0.0
  0
VERTEX
  5
105
  8
LAYER_1
 62
   242
 10
36.124
 20
30.7738
 30
0.0
  0
VERTEX
  5
106
  8
LAYER_1
 62
   242
 10
35.074
 20
30.7738
 30
0.0
  0
VERTEX
  5
107
  8
LAYER_1
 62
   242
 10
35.074
 20
26.8283
 30
0.0
  0
VERTEX
  5
108
  8
LAYER_1
 62
   242
 10
32.074
 20
26.8283
 30
0.0
  0
VERTEX
  5
109
  8
LAYER_1
 62
   242
 10
32.074
 20
30.7738
 30
0.0
  0
VERTEX
  5
10A
  8
LAYER_1
 62
   242
 10
31.024
 20
30.7738
 30
0.0
  0
VERTEX
  5
10B
  8
LAYER_1
 62
   242
 10
31.024
 20
32.8738
 30
0.0
  0
VERTEX
  5
10C
  8
LAYER_1
 62
   242
 10
32.074
 20
32.8738
 30
0.0
  0
VERTEX
  5
10D
  8
LAYER_1
 62
   242
 10
32.074
 20
36.8283
 30
0.0
  0
VERTEX
  5
10E
  8
LAYER_1
 62
   242
 10
24.5235
 20
36.8283
 30
0.0
  0
VERTEX
  5
10F
  8
LAYER_1
 62
   242
 10
24.5235
 20
40.3283
 30
0.0
  0
VERTEX
  5
110
  8
LAYER_1
 62
   242
 10
4.5235
 20
40.3283
 30
0.0
  0
VERTEX
  5
111
  8
LAYER_1
 62
   242
 10
4.5235
 20
36.8283
 30
0.0
  0
VERTEX
  5
112
  8
LAYER_1
 62
   242
 10
-1.426
 20
36.8283
 30
0.0
  0
SEQEND
  5
113
  8
LAYER_1
 62
   242
  0
POLYLINE
  5
4A
  8
LAYER_1
 62
   242
 66
     1
 10
0.0
 20
0.0
 30
0.0
  0
VERTEX
  5
114
  8
LAYER_1
 62
   242
 10
-1.426
 20
36.8283
 30
0.0
  0
VERTEX
  5
115
  8
LAYER_1
 62
   242
 10
-7.3755
 20
36.8283
 30
0.0
  0
VERTEX
  5
116
  8
LAYER_1
 62
   242
 10
-7.3755
 20
40.3283
 30
0.0
  0
VERTEX
  5
117
  8
LAYER_1
 62
   242
 10
-27.3755
 20
40.3283
 30
0.0
  0
VERTEX
  5
118
  8
LAYER_1
 62
   242
 10
-27.3755
 20
36.8283
 30
0.0
  0
VERTEX
  5
119
  8
LAYER_1
 62
   242
 10
-34.926
 20
36.8283
 30
0.0
  0
VERTEX
  5
11A
  8
LAYER_1
 62
   242
 10
-34.926
 20
32.8738
 30
0.0
  0
VERTEX
  5
11B
  8
LAYER_1
 62
   242
 10
-33.876
 20
32.8738
 30
0.0
  0
VERTEX
  5
11C
  8
LAYER_1
 62
   242
 10
-33.876
 20
30.7738
 30
0.0
  0
VERTEX
  5
11D
  8
LAYER_1
 62
   242
 10
-34.926
 20
30.7738
 30
0.0
  0
VERTEX
  5
11E
  8
LAYER_1
 62
   242
 10
-34.926
 20
26.8283
 30
0.0
  0
VERTEX
  5
11F
  8
LAYER_1
 62
   242
 10
-37.926
 20
26.8283
 30
0.0
  0
VERTEX
  5
120
  8
LAYER_1
 62
   242
 10
-37.926
 20
30.7738
 30
0.0
  0
VERTEX
  5
121
  8
LAYER_1
 62
   242
 10
-38.976
 20
30.7738
 30
0.0
  0
VERTEX
  5
122
  8
LAYER_1
 62
   242
 10
-38.976
 20
32.8738
 30
0.0
  0
VERTEX
  5
123
  8
LAYER_1
 62
   242
 10
-37.926
 20
32.8738
 30
0.0
  0
VERTEX
  5
124
  8
LAYER_1
 62
   242
 10
-37.926
 20
36.8283
 30
0.0
  0
VERTEX
  5
125
  8
LAYER_1
 62
   242
 10
-42.3755
 20
36.8283
 30
0.0
  0
VERTEX
  5
126
  8
LAYER_1
 62
   242
 10
-42.3755
 20
40.3283
 30
0.0
  0
VERTEX
  5
127
  8
LAYER_1
 62
   242
 10
-62.3755
 20
40.3283
 30
0.0
  0
VERTEX
  5
128
  8
LAYER_1
 62
   242
 10
-62.3755
 20
36.8283
 30
0.0
  0
VERTEX
  5
129
  8
LAYER_1
 62
   242
 10
-69.926
 20
36.8283
 30
0.0
  0
VERTEX
  5
12A
  8
LAYER_1
 62
   242
 10
-69.926
 20
32.8738
 30
0.0
  0
VERTEX
  5
12B
  8
LAYER_1
 62
   242
 10
-68.876
 20
32.8738
 30
0.0
  0
VERTEX
  5
12C
  8
LAYER_1
 62
   242
 10
-68.876
 20
30.7738
 30
0.0
  0
VERTEX
  5
12D
  8
LAYER_1
 62
   242
 10
-69.926
 20
30.7738
 30
0.0
  0
VERTEX
  5
12E
  8
LAYER_1
 62
   242
 10
-69.926
 20
26.8283
 30
0.0
  0
VERTEX
  5
12F
  8
LAYER_1
 62
   242
 10
-72.926
 20
26.8283
 30
0.0
  0
VERTEX
  5
130
  8
LAYER_1
 62
   242
 10
-72.926
 20
30.7738
 30
0.0
  0
VERTEX
  5
131
  8
LAYER_1
 62
   242
 10
-73.976
 20
30.7738
 30
0.0
  0
VERTEX
  5
132
  8
LAYER_1
 62
   242
 10
-73.976
 20
32.8738
 30
0.0
  0
VERTEX
  5
133
  8
LAYER_1
 62
   242
 10
-72.926
 20
32.8738
 30
0.0
  0
VERTEX
  5
134
  8
LAYER_1
 62
   242
 10
-72.926
 20
36.8283
 30
0.0
  0
VERTEX
  5
135
  8
LAYER_1
 62
   242
 10
-85.6257
 20
36.8283
 30
0.0
  0
VERTEX
  5
136
  8
LAYER_1
 62
   242
 10
-85.6257
 20
11.8283
 30
0.0
  0
VERTEX
  5
137
  8
LAYER_1
 62
   242
 10
-89.1257
 20
11.8283
 30
0.0
  0
VERTEX
  5
138
  8
LAYER_1
 62
   242
 10
-89.1257
 20
36.8283
 30
0.0
  0
VERTEX
  5
139
  8
LAYER_1
 62
   242
 10
-104.926
 20
36.8283
 30
0.0
  0
VERTEX
  5
13A
  8
LAYER_1
 62
   242
 10
-104.926
 20
32.8738
 30
0.0
  0
VERTEX
  5
13B
  8
LAYER_1
 62
   242
 10
-103.876
 20
32.8738
 30
0.0
  0
VERTEX
  5
13C
  8
LAYER_1
 62
   242
 10
-103.876
 20
30.7738
 30
0.0
  0
VERTEX
  5
13D
  8
LAYER_1
 62
   242
 10
-104.926
 20
30.7738
 30
0.0
  0
VERTEX
  5
13E
  8
LAYER_1
 62
   242
 10
-104.926
 20
26.8283
 30
0.0
  0
VERTEX
  5
13F
  8
LAYER_1
 62
   242
 10
-107.926
 20
26.8283
 30
0.0
  0
VERTEX
  5
140
  8
LAYER_1
 62
   242
 10
-107.926
 20
30.7738
 30
0.0
  0
VERTEX
  5
141
  8
LAYER_1
 62
   242
 10
-108.976
 20
30.7738
 30
0.0
  0
VERTEX
  5
142
  8
LAYER_1
 62
   242
 10
-108.976
 20
32.8738
 30
0.0
  0
VERTEX
  5
143
  8
LAYER_1
 62
   242
 10
-107.926
 20
32.8738
 30
0.0
  0
VERTEX
  5
144
  8
LAYER_1
 62
   242
 10
-107.926
 20
36.8283
 30
0.0
  0
VERTEX
  5
145
  8
LAYER_1
 62
   242
 10
-132.426
 20
36.8283
 30
0.0
  0
VERTEX
  5
146
  8
LAYER_1
 62
   242
 10
-132.426
 20
20.8283
 30
0.0
  0
VERTEX
  5
147
  8
LAYER_1
 62
   242
 10
-135.176
 20
20.8283
 30
0.0
  0
VERTEX
  5
148
  8
LAYER_1
 62
   242
 10
-135.176
 20
28.8283
 30
0.0
  0
VERTEX
  5
149
  8
LAYER_1
 62
   242
 10
-135.176
 20
28.8283
 30
0.0
  0
VERTEX
  5
14A
  8
LAYER_1
 62
   242
 10
-135.176
 20
36.8283
 30
0.0
  0
VERTEX
  5
14B
  8
LAYER_1
 62
   242
 10
-148.676
 20
36.8283
 30
0.0
  0
VERTEX
  5
14C
  8
LAYER_1
 62
   242
 10
-148.676
 20
20.8283
 30
0.0
  0
VERTEX
  5
14D
  8
LAYER_1
 62
   242
 10
-151.426
 20
20.8283
 30
0.0
  0
VERTEX
  5
14E
  8
LAYER_1
 62
   242
 10
-151.426
 20
36.8283
 30
0.0
  0
VERTEX
  5
14F
  8
LAYER_1
 62
   242
 10
-158.926
 20
36.8283
 30
0.0
  0
VERTEX
  5
150
  8
LAYER_1
 62
   242
 10
-158.926
 20
40.3283
 30
0.0
  0
VERTEX
  5
151
  8
LAYER_1
 62
   242
 10
-168.926
 20
40.3283
 30
0.0
  0
VERTEX
  5
152
  8
LAYER_1
 62
   242
 10
-168.926
 20
36.8283
 30
0.0
  0
VERTEX
  5
153
  8
LAYER_1
 62
   242
 10
-176.426
 20
36.8283
 30
0.0
  0
VERTEX
  5
154
  8
LAYER_1
 62
   242
 10
-176.426
 20
20.8283
 30
0.0
  0
VERTEX
  5
155
  8
LAYER_1
 62
   242
 10
-16.4261
 20
-113.1717
 30
0.0
  0
VERTEX
  5
156
  8
LAYER_1
 62
   242
 10
13.5739
 20
-113.1717
 30
0.0
  0
VERTEX
  5
157
  8
LAYER_1
 62
   242
 10
173.574
 20
20.8283
 30
0.0
  0
VERTEX
  5
158
  8
LAYER_1
 62
   242
 10
173.574
 20
36.8283
 30
0.0
  0
SEQEND
  5
159
  8
LAYER_1
 62
   242
  0
POLYLINE
  5
4B
  8
LAYER_1
 62
   242
 66
     1
 10
0.0
 20
0.0
 30
0.0
 70
     1
  0
VERTEX
  5
15A
  8
LAYER_1
 62
   242
 10
85.1085
 20
57.2739
 30
0.0
  0
VERTEX
  5
15B
  8
LAYER_1
 62
   242
 10
85.1085
 20
47.2739
 30
0.0
  0
VERTEX
  5
15C
  8
LAYER_1
 62
   242
 10
81.6085
 20
47.2739
 30
0.0
  0
VERTEX
  5
15D
  8
LAYER_1
 62
   242
 10
81.6085
 20
57.2739
 30
0.0
  0
VERTEX
  5
15E
  8
LAYER_1
 62
   242
 10
85.1085
 20
57.2739
 30
0.0
  0
SEQEND
  5
15F
  8
LAYER_1
 62
   242
  0
POLYLINE
  5
4C
  8
LAYER_1
 62
   242
 66
     1
 10
0.0
 20
0.0
 30
0.0
 70
     1
  0
VERTEX
  5
160
  8
LAYER_1
 62
   242
 10
84.8585
 20
98.7739
 30
0.0
  0
VERTEX
  5
161
  8
LAYER_1
 62
   242
 10
84.8585
 20
88.7739
 30
0.0
  0
VERTEX
  5
162
  8
LAYER_1
 62
   242
 10
81.8585
 20
88.7739
 30
0.0
  0
VERTEX
  5
163
  8
LAYER_1
 62
   242
 10
81.8585
 20
98.7739
 30
0.0
  0
VERTEX
  5
164
  8
LAYER_1
 62
   242
 10
84.8585
 20
98.7739
 30
0.0
  0
SEQEND
  5
165
  8
LAYER_1
 62
   242
  0
POLYLINE
  5
4D
  8
LAYER_1
 62
   242
 66
     1
 10
0.0
 20
0.0
 30
0.0
 70
     1
  0
VERTEX
  5
166
  8
LAYER_1
 62
   242
 10
-86.7905
 20
57.2739
 30
0.0
  0
VERTEX
  5
167
  8
LAYER_1
 62
   242
 10
-86.7905
 20
47.2739
 30
0.0
  0
VERTEX
  5
168
  8
LAYER_1
 62
   242
 10
-90.2905
 20
47.2739
 30
0.0
  0
VERTEX
  5
169
  8
LAYER_1
 62
   242
 10
-90.2905
 20
57.2739
 30
0.0
  0
VERTEX
  5
16A
  8
LAYER_1
 62
   242
 10
-86.7905
 20
57.2739
 30
0.0
  0
SEQEND
  5
16B
  8
LAYER_1
 62
   242
  0
POLYLINE
  5
4E
  8
LAYER_1
 62
   242
 66
     1
 10
0.0
 20
0.0
 30
0.0
 70
     1
  0
VERTEX
  5
16C
  8
LAYER_1
 62
   242
 10
-86.7905
 20
98.7739
 30
0.0
  0
VERTEX
  5
16D
  8
LAYER_1
 62
   242
 10
-86.7905
 20
88.7739
 30
0.0
  0
VERTEX
  5
16E
  8
LAYER_1
 62
   242
 10
-90.2905
 20
88.7739
 30
0.0
  0
VERTEX
  5
16F
  8
LAYER_1
 62
   242
 10
-90.2905
 20
98.7739
 30
0.0
  0
VERTEX
  5
170
  8
LAYER_1
 62
   242
 10
-86.7905
 20
98.7739
 30
0.0
  0
SEQEND
  5
171
  8
LAYER_1
 62
   242
  0
POLYLINE
  5
4F
  8
LAYER_1
 62
   242
 66
     1
 10
0.0
 20
0.0
 30
0.0
 70
     1
  0
VERTEX
  5
172
  8
LAYER_1
 62
   242
 10
47.3186
 20
111.3237
 30
0.0
  0
VERTEX
  5
173
  8
LAYER_1
 62
   242
 10
47.0163
 20
111.3542
 30
0.0
  0
VERTEX
  5
174
  8
LAYER_1
 62
   242
 10
46.7347
 20
111.4416
 30
0.0
  0
VERTEX
  5
175
  8
LAYER_1
 62
   242
 10
46.4799
 20
111.5799
 30
0.0
  0
VERTEX
  5
176
  8
LAYER_1
 62
   242
 10
46.258
 20
111.763
 30
0.0
  0
VERTEX
  5
177
  8
LAYER_1
 62
   242
 10
46.0748
 20
111.985
 30
0.0
  0
VERTEX
  5
178
  8
LAYER_1
 62
   242
 10
45.9365
 20
112.2398
 30
0.0
  0
VERTEX
  5
179
  8
LAYER_1
 62
   242
 10
45.8491
 20
112.5214
 30
0.0
  0
VERTEX
  5
17A
  8
LAYER_1
 62
   242
 10
45.8186
 20
112.8237
 30
0.0
  0
VERTEX
  5
17B
  8
LAYER_1
 62
   242
 10
45.8491
 20
113.126
 30
0.0
  0
VERTEX
  5
17C
  8
LAYER_1
 62
   242
 10
45.9365
 20
113.4076
 30
0.0
  0
VERTEX
  5
17D
  8
LAYER_1
 62
   242
 10
46.0748
 20
113.6624
 30
0.0
  0
VERTEX
  5
17E
  8
LAYER_1
 62
   242
 10
46.258
 20
113.8844
 30
0.0
  0
VERTEX
  5
17F
  8
LAYER_1
 62
   242
 10
46.4799
 20
114.0675
 30
0.0
  0
VERTEX
  5
180
  8
LAYER_1
 62
   242
 10
46.7347
 20
114.2058
 30
0.0
  0
VERTEX
  5
181
  8
LAYER_1
 62
   242
 10
47.0163
 20
114.2932
 30
0.0
  0
VERTEX
  5
182
  8
LAYER_1
 62
   242
 10
47.3186
 20
114.3237
 30
0.0
  0
VERTEX
  5
183
  8
LAYER_1
 62
   242
 10
47.6209
 20
114.2932
 30
0.0
  0
VERTEX
  5
184
  8
LAYER_1
 62
   242
 10
47.9025
 20
114.2058
 30
0.0
  0
VERTEX
  5
185
  8
LAYER_1
 62
   242
 10
48.1573
 20
114.0675
 30
0.0
  0
VERTEX
  5
186
  8
LAYER_1
 62
   242
 10
48.3793
 20
113.8844
 30
0.0
  0
VERTEX
  5
187
  8
LAYER_1
 62
   242
 10
48.5624
 20
113.6624
 30
0.0
  0
VERTEX
  5
188
  8
LAYER_1
 62
   242
 10
48.7007
 20
113.4076
 30
0.0
  0
VERTEX
  5
189
  8
LAYER_1
 62
   242
 10
48.7881
 20
113.126
 30
0.0
  0
VERTEX
  5
18A
  8
LAYER_1
 62
   242
 10
48.8186
 20
112.8237
 30
0.0
  0
VERTEX
  5
18B
  8
LAYER_1
 62
   242
 10
48.7881
 20
112.5214
 30
0.0
  0
VERTEX
  5
18C
  8
LAYER_1
 62
   242
 10
48.7007
 20
112.2398
 30
0.0
  0
VERTEX
  5
18D
  8
LAYER_1
 62
   242
 10
48.5624
 20
111.985
 30
0.0
  0
VERTEX
  5
18E
  8
LAYER_1
 62
   242
 10
48.3793
 20
111.763
 30
0.0
  0
VERTEX
  5
18F
  8
LAYER_1
 62
   242
 10
48.1573
 20
111.5799
 30
0.0
  0
VERTEX
  5
190
  8
LAYER_1
 62
   242
 10
47.9025
 20
111.4416
 30
0.0
  0
VERTEX
  5
191
  8
LAYER_1
 62
   242
 10
47.6209
 20
111.3542
 30
0.0
  0
VERTEX
  5
192
  8
LAYER_1
 62
   242
 10
47.3186
 20
111.3237
 30
0.0
  0
SEQEND
  5
193
  8
LAYER_1
 62
   242
  0
POLYLINE
  5
50
  8
LAYER_1
 62
   242
 66
     1
 10
0.0
 20
0.0
 30
0.0
 70
     1
  0
VERTEX
  5
194
  8
LAYER_1
 62
   242
 10
47.3186
 20
86.3237
 30
0.0
  0
VERTEX
  5
195
  8
LAYER_1
 62
   242
 10
47.0163
 20
86.3542
 30
0.0
  0
VERTEX
  5
196
  8
LAYER_1
 62
   242
 10
46.7347
 20
86.4416
 30
0.0
  0
VERTEX
  5
197
  8
LAYER_1
 62
   242
 10
46.4799
 20
86.5799
 30
0.0
  0
VERTEX
  5
198
  8
LAYER_1
 62
   242
 10
46.258
 20
86.763
 30
0.0
  0
VERTEX
  5
199
  8
LAYER_1
 62
   242
 10
46.0748
 20
86.985
 30
0.0
  0
VERTEX
  5
19A
  8
LAYER_1
 62
   242
 10
45.9365
 20
87.2398
 30
0.0
  0
VERTEX
  5
19B
  8
LAYER_1
 62
   242
 10
45.8491
 20
87.5214
 30
0.0
  0
VERTEX
  5
19C
  8
LAYER_1
 62
   242
 10
45.8186
 20
87.8237
 30
0.0
  0
VERTEX
  5
19D
  8
LAYER_1
 62
   242
 10
45.8491
 20
88.126
 30
0.0
  0
VERTEX
  5
19E
  8
LAYER_1
 62
   242
 10
45.9365
 20
88.4076
 30
0.0
  0
VERTEX
  5
19F
  8
LAYER_1
 62
   242
 10
46.0748
 20
88.6624
 30
0.0
  0
VERTEX
  5
1A0
  8
LAYER_1
 62
   242
 10
46.258
 20
88.8844
 30
0.0
  0
VERTEX
  5
1A1
  8
LAYER_1
 62
   242
 10
46.4799
 20
89.0675
 30
0.0
  0
VERTEX
  5
1A2
  8
LAYER_1
 62
   242
 10
46.7347
 20
89.2058
 30
0.0
  0
VERTEX
  5
1A3
  8
LAYER_1
 62
   242
 10
47.0163
 20
89.2932
 30
0.0
  0
VERTEX
  5
1A4
  8
LAYER_1
 62
   242
 10
47.3186
 20
89.3237
 30
0.0
  0
VERTEX
  5
1A5
  8
LAYER_1
 62
   242
 10
47.6209
 20
89.2932
 30
0.0
  0
VERTEX
  5
1A6
  8
LAYER_1
 62
   242
 10
47.9025
 20
89.2058
 30
0.0
  0
VERTEX
  5
1A7
  8
LAYER_1
 62
   242
 10
48.1573
 20
89.0675
 30
0.0
  0
VERTEX
  5
1A8
  8
LAYER_1
 62
   242
 10
48.3793
 20
88.8844
 30
0.0
  0
VERTEX
  5
1A9
  8
LAYER_1
 62
   242
 10
48.5624
 20
88.6624
 30
0.0
  0
VERTEX
  5
1AA
  8
LAYER_1
 62
   242
 10
48.7007
 20
88.4076
 30
0.0
  0
VERTEX
  5
1AB
  8
LAYER_1
 62
   242
 10
48.7881
 20
88.126
 30
0.0
  0
VERTEX
  5
1AC
  8
LAYER_1
 62
   242
 10
48.8186
 20
87.8237
 30
0.0
  0
VERTEX
  5
1AD
  8
LAYER_1
 62
   242
 10
48.7881
 20
87.5214
 30
0.0
  0
VERTEX
  5
1AE
  8
LAYER_1
 62
   242
 10
48.7007
 20
87.2398
 30
0.0
  0
VERTEX
  5
1AF
  8
LAYER_1
 62
   242
 10
48.5624
 20
86.985
 30
0.0
  0
VERTEX
  5
1B0
  8
LAYER_1
 62
   242
 10
48.3793
 20
86.763
 30
0.0
  0
VERTEX
  5
1B1
  8
LAYER_1
 62
   242
 10
48.1573
 20
86.5799
 30
0.0
  0
VERTEX
  5
1B2
  8
LAYER_1
 62
   242
 10
47.9025
 20
86.4416
 30
0.0
  0
VERTEX
  5
1B3
  8
LAYER_1
 62
   242
 10
47.6209
 20
86.3542
 30
0.0
  0
VERTEX
  5
1B4
  8
LAYER_1
 62
   242
 10
47.3186
 20
86.3237
 30
0.0
  0
SEQEND
  5
1B5
  8
LAYER_1
 62
   242
  0
POLYLINE
  5
51
  8
LAYER_1
 62
   242
 66
     1
 10
0.0
 20
0.0
 30
0.0
 70
     1
  0
VERTEX
  5
1B6
  8
LAYER_1
 62
   242
 10
164.9088
 20
71.1637
 30
0.0
  0
VERTEX
  5
1B7
  8
LAYER_1
 62
   242
 10
154.9088
 20
71.1637
 30
0.0
  0
VERTEX
  5
1B8
  8
LAYER_1
 62
   242
 10
154.9088
 20
74.8837
 30
0.0
  0
VERTEX
  5
1B9
  8
LAYER_1
 62
   242
 10
164.9088
 20
74.8837
 30
0.0
  0
VERTEX
  5
1BA
  8
LAYER_1
 62
   242
 10
164.9088
 20
71.1637
 30
0.0
  0
SEQEND
  5
1BB
  8
LAYER_1
 62
   242
  0
POLYLINE
  5
52
  8
LAYER_1
 62
   242
 66
     1
 10
0.0
 20
0.0
 30
0.0
 70
     1
  0
VERTEX
  5
1BC
  8
LAYER_1
 62
   242
 10
58.3583
 20
71.2737
 30
0.0
  0
VERTEX
  5
1BD
  8
LAYER_1
 62
   242
 10
38.3583
 20
71.2737
 30
0.0
  0
VERTEX
  5
1BE
  8
LAYER_1
 62
   242
 10
38.3583
 20
74.7737
 30
0.0
  0
VERTEX
  5
1BF
  8
LAYER_1
 62
   242
 10
58.3583
 20
74.7737
 30
0.0
  0
VERTEX
  5
1C0
  8
LAYER_1
 62
   242
 10
58.3583
 20
71.2737
 30
0.0
  0
SEQEND
  5
1C1
  8
LAYER_1
 62
   242
  0
POLYLINE
  5
53
  8
LAYER_1
 62
   242
 66
     1
 10
0.0
 20
0.0
 30
0.0
 70
     1
  0
VERTEX
  5
1C2
  8
LAYER_1
 62
   242
 10
23.3583
 20
71.2737
 30
0.0
  0
VERTEX
  5
1C3
  8
LAYER_1
 62
   242
 10
3.3583
 20
71.2737
 30
0.0
  0
VERTEX
  5
1C4
  8
LAYER_1
 62
   242
 10
3.3583
 20
74.7737
 30
0.0
  0
VERTEX
  5
1C5
  8
LAYER_1
 62
   242
 10
23.3583
 20
74.7737
 30
0.0
  0
VERTEX
  5
1C6
  8
LAYER_1
 62
   242
 10
23.3583
 20
71.2737
 30
0.0
  0
SEQEND
  5
1C7
  8
LAYER_1
 62
   242
  0
POLYLINE
  5
54
  8
LAYER_1
 62
   242
 66
     1
 10
0.0
 20
0.0
 30
0.0
 70
     1
  0
VERTEX
  5
1C8
  8
LAYER_1
 62
   242
 10
-8.5407
 20
71.2737
 30
0.0
  0
VERTEX
  5
1C9
  8
LAYER_1
 62
   242
 10
-28.5407
 20
71.2737
 30
0.0
  0
VERTEX
  5
1CA
  8
LAYER_1
 62
   242
 10
-28.5407
 20
74.7738
 30
0.0
  0
VERTEX
  5
1CB
  8
LAYER_1
 62
   242
 10
-8.5407
 20
74.7738
 30
0.0
  0
VERTEX
  5
1CC
  8
LAYER_1
 62
   242
 10
-8.5407
 20
71.2737
 30
0.0
  0
SEQEND
  5
1CD
  8
LAYER_1
 62
   242
  0
POLYLINE
  5
55
  8
LAYER_1
 62
   242
 66
     1
 10
0.0
 20
0.0
 30
0.0
 70
     1
  0
VERTEX
  5
1CE
  8
LAYER_1
 62
   242
 10
-43.5407
 20
71.2737
 30
0.0
  0
VERTEX
  5
1CF
  8
LAYER_1
 62
   242
 10
-63.5407
 20
71.2737
 30
0.0
  0
VERTEX
  5
1D0
  8
LAYER_1
 62
   242
 10
-63.5407
 20
74.7737
 30
0.0
  0
VERTEX
  5
1D1
  8
LAYER_1
 62
   242
 10
-43.5407
 20
74.7737
 30
0.0
  0
VERTEX
  5
1D2
  8
LAYER_1
 62
   242
 10
-43.5407
 20
71.2737
 30
0.0
  0
SEQEND
  5
1D3
  8
LAYER_1
 62
   242
  0
POLYLINE
  5
56
  8
LAYER_1
 62
   242
 66
     1
 10
0.0
 20
0.0
 30
0.0
 70
     1
  0
VERTEX
  5
1D4
  8
LAYER_1
 62
   242
 10
-160.0912
 20
71.3837
 30
0.0
  0
VERTEX
  5
1D5
  8
LAYER_1
 62
   242
 10
-170.0912
 20
71.3837
 30
0.0
  0
VERTEX
  5
1D6
  8
LAYER_1
 62
   242
 10
-170.0912
 20
74.8837
 30
0.0
  0
VERTEX
  5
1D7
  8
LAYER_1
 62
   242
 10
-160.0912
 20
74.8837
 30
0.0
  0
VERTEX
  5
1D8
  8
LAYER_1
 62
   242
 10
-160.0912
 20
71.3837
 30
0.0
  0
SEQEND
  5
1D9
  8
LAYER_1
 62
   242
  0
POLYLINE
  5
57
  8
LAYER_1
 62
   242
 66
     1
 10
0.0
 20
0.0
 30
0.0
 70
     1
  0
VERTEX
  5
1DA
  8
LAYER_1
 62
   242
 10
-107.5912
 20
71.1306
 30
0.0
  0
VERTEX
  5
1DB
  8
LAYER_1
 62
   242
 10
-107.9727
 20
71.1691
 30
0.0
  0
VERTEX
  5
1DC
  8
LAYER_1
 62
   242
 10
-108.3281
 20
71.2794
 30
0.0
  0
VERTEX
  5
1DD
  8
LAYER_1
 62
   242
 10
-108.6496
 20
71.4539
 30
0.0
  0
VERTEX
  5
1DE
  8
LAYER_1
 62
   242
 10
-108.9298
 20
71.6851
 30
0.0
  0
VERTEX
  5
1DF
  8
LAYER_1
 62
   242
 10
-109.161
 20
71.9652
 30
0.0
  0
VERTEX
  5
1E0
  8
LAYER_1
 62
   242
 10
-109.3355
 20
72.2868
 30
0.0
  0
VERTEX
  5
1E1
  8
LAYER_1
 62
   242
 10
-109.4458
 20
72.6422
 30
0.0
  0
VERTEX
  5
1E2
  8
LAYER_1
 62
   242
 10
-109.4843
 20
73.0237
 30
0.0
  0
VERTEX
  5
1E3
  8
LAYER_1
 62
   242
 10
-109.4458
 20
73.4052
 30
0.0
  0
VERTEX
  5
1E4
  8
LAYER_1
 62
   242
 10
-109.3355
 20
73.7606
 30
0.0
  0
VERTEX
  5
1E5
  8
LAYER_1
 62
   242
 10
-109.161
 20
74.0822
 30
0.0
  0
VERTEX
  5
1E6
  8
LAYER_1
 62
   242
 10
-108.9298
 20
74.3624
 30
0.0
  0
VERTEX
  5
1E7
  8
LAYER_1
 62
   242
 10
-108.6496
 20
74.5935
 30
0.0
  0
VERTEX
  5
1E8
  8
LAYER_1
 62
   242
 10
-108.3281
 20
74.768
 30
0.0
  0
VERTEX
  5
1E9
  8
LAYER_1
 62
   242
 10
-107.9727
 20
74.8783
 30
0.0
  0
VERTEX
  5
1EA
  8
LAYER_1
 62
   242
 10
-107.5912
 20
74.9168
 30
0.0
  0
VERTEX
  5
1EB
  8
LAYER_1
 62
   242
 10
-107.2097
 20
74.8783
 30
0.0
  0
VERTEX
  5
1EC
  8
LAYER_1
 62
   242
 10
-106.8543
 20
74.768
 30
0.0
  0
VERTEX
  5
1ED
  8
LAYER_1
 62
   242
 10
-106.5328
 20
74.5935
 30
0.0
  0
VERTEX
  5
1EE
  8
LAYER_1
 62
   242
 10
-106.2526
 20
74.3624
 30
0.0
  0
VERTEX
  5
1EF
  8
LAYER_1
 62
   242
 10
-106.0214
 20
74.0822
 30
0.0
  0
VERTEX
  5
1F0
  8
LAYER_1
 62
   242
 10
-105.8469
 20
73.7606
 30
0.0
  0
VERTEX
  5
1F1
  8
LAYER_1
 62
   242
 10
-105.7366
 20
73.4052
 30
0.0
  0
VERTEX
  5
1F2
  8
LAYER_1
 62
   242
 10
-105.6981
 20
73.0237
 30
0.0
  0
VERTEX
  5
1F3
  8
LAYER_1
 62
   242
 10
-105.7366
 20
72.6422
 30
0.0
  0
VERTEX
  5
1F4
  8
LAYER_1
 62
   242
 10
-105.8469
 20
72.2868
 30
0.0
  0
VERTEX
  5
1F5
  8
LAYER_1
 62
   242
 10
-106.0214
 20
71.9652
 30
0.0
  0
VERTEX
  5
1F6
  8
LAYER_1
 62
   242
 10
-106.2526
 20
71.6851
 30
0.0
  0
VERTEX
  5
1F7
  8
LAYER_1
 62
   242
 10
-106.5328
 20
71.4539
 30
0.0
  0
VERTEX
  5
1F8
  8
LAYER_1
 62
   242
 10
-106.8543
 20
71.2794
 30
0.0
  0
VERTEX
  5
1F9
  8
LAYER_1
 62
   242
 10
-107.2097
 20
71.1691
 30
0.0
  0
VERTEX
  5
1FA
  8
LAYER_1
 62
   242
 10
-107.5912
 20
71.1306
 30
0.0
  0
SEQEND
  5
1FB
  8
LAYER_1
 62
   242
  0
POLYLINE
  5
58
  8
LAYER_1
 62
   242
 66
     1
 10
0.0
 20
0.0
 30
0.0
 70
     1
  0
VERTEX
  5
1FC
  8
LAYER_1
 62
   242
 10
-72.5912
 20
71.28
 30
0.0
  0
VERTEX
  5
1FD
  8
LAYER_1
 62
   242
 10
-72.9426
 20
71.3154
 30
0.0
  0
VERTEX
  5
1FE
  8
LAYER_1
 62
   242
 10
-73.2699
 20
71.417
 30
0.0
  0
VERTEX
  5
1FF
  8
LAYER_1
 62
   242
 10
-73.5661
 20
71.5778
 30
0.0
  0
VERTEX
  5
200
  8
LAYER_1
 62
   242
 10
-73.8242
 20
71.7907
 30
0.0
  0
VERTEX
  5
201
  8
LAYER_1
 62
   242
 10
-74.0371
 20
72.0487
 30
0.0
  0
VERTEX
  5
202
  8
LAYER_1
 62
   242
 10
-74.1979
 20
72.3449
 30
0.0
  0
VERTEX
  5
203
  8
LAYER_1
 62
   242
 10
-74.2995
 20
72.6723
 30
0.0
  0
VERTEX
  5
204
  8
LAYER_1
 62
   242
 10
-74.3349
 20
73.0237
 30
0.0
  0
VERTEX
  5
205
  8
LAYER_1
 62
   242
 10
-74.2995
 20
73.3751
 30
0.0
  0
VERTEX
  5
206
  8
LAYER_1
 62
   242
 10
-74.1979
 20
73.7025
 30
0.0
  0
VERTEX
  5
207
  8
LAYER_1
 62
   242
 10
-74.0371
 20
73.9987
 30
0.0
  0
VERTEX
  5
208
  8
LAYER_1
 62
   242
 10
-73.8242
 20
74.2567
 30
0.0
  0
VERTEX
  5
209
  8
LAYER_1
 62
   242
 10
-73.5661
 20
74.4696
 30
0.0
  0
VERTEX
  5
20A
  8
LAYER_1
 62
   242
 10
-73.2699
 20
74.6304
 30
0.0
  0
VERTEX
  5
20B
  8
LAYER_1
 62
   242
 10
-72.9426
 20
74.732
 30
0.0
  0
VERTEX
  5
20C
  8
LAYER_1
 62
   242
 10
-72.5912
 20
74.7674
 30
0.0
  0
VERTEX
  5
20D
  8
LAYER_1
 62
   242
 10
-72.2398
 20
74.732
 30
0.0
  0
VERTEX
  5
20E
  8
LAYER_1
 62
   242
 10
-71.9125
 20
74.6304
 30
0.0
  0
VERTEX
  5
20F
  8
LAYER_1
 62
   242
 10
-71.6163
 20
74.4696
 30
0.0
  0
VERTEX
  5
210
  8
LAYER_1
 62
   242
 10
-71.3582
 20
74.2567
 30
0.0
  0
VERTEX
  5
211
  8
LAYER_1
 62
   242
 10
-71.1453
 20
73.9987
 30
0.0
  0
VERTEX
  5
212
  8
LAYER_1
 62
   242
 10
-70.9845
 20
73.7025
 30
0.0
  0
VERTEX
  5
213
  8
LAYER_1
 62
   242
 10
-70.8829
 20
73.3751
 30
0.0
  0
VERTEX
  5
214
  8
LAYER_1
 62
   242
 10
-70.8475
 20
73.0237
 30
0.0
  0
VERTEX
  5
215
  8
LAYER_1
 62
   242
 10
-70.8829
 20
72.6723
 30
0.0
  0
VERTEX
  5
216
  8
LAYER_1
 62
   242
 10
-70.9845
 20
72.3449
 30
0.0
  0
VERTEX
  5
217
  8
LAYER_1
 62
   242
 10
-71.1453
 20
72.0487
 30
0.0
  0
VERTEX
  5
218
  8
LAYER_1
 62
   242
 10
-71.3582
 20
71.7907
 30
0.0
  0
VERTEX
  5
219
  8
LAYER_1
 62
   242
 10
-71.6163
 20
71.5778
 30
0.0
  0
VERTEX
  5
21A
  8
LAYER_1
 62
   242
 10
-71.9125
 20
71.417
 30
0.0
  0
VERTEX
  5
21B
  8
LAYER_1
 62
   242
 10
-72.2398
 20
71.3154
 30
0.0
  0
VERTEX
  5
21C
  8
LAYER_1
 62
   242
 10
-72.5912
 20
71.28
 30
0.0
  0
SEQEND
  5
21D
  8
LAYER_1
 62
   242
  0
POLYLINE
  5
59
  8
LAYER_1
 62
   242
 66
     1
 10
0.0
 20
0.0
 30
0.0
 70
     1
  0
VERTEX
  5
21E
  8
LAYER_1
 62
   242
 10
-37.5912
 20
71.3725
 30
0.0
  0
VERTEX
  5
21F
  8
LAYER_1
 62
   242
 10
-37.9441
 20
71.4081
 30
0.0
  0
VERTEX
  5
220
  8
LAYER_1
 62
   242
 10
-38.2728
 20
71.5101
 30
0.0
  0
VERTEX
  5
221
  8
LAYER_1
 62
   242
 10
-38.5703
 20
71.6716
 30
0.0
  0
VERTEX
  5
222
  8
LAYER_1
 62
   242
 10
-38.8295
 20
71.8854
 30
0.0
  0
VERTEX
  5
223
  8
LAYER_1
 62
   242
 10
-39.0433
 20
72.1446
 30
0.0
  0
VERTEX
  5
224
  8
LAYER_1
 62
   242
 10
-39.2048
 20
72.442
 30
0.0
  0
VERTEX
  5
225
  8
LAYER_1
 62
   242
 10
-39.3068
 20
72.7708
 30
0.0
  0
VERTEX
  5
226
  8
LAYER_1
 62
   242
 10
-39.3424
 20
73.1237
 30
0.0
  0
VERTEX
  5
227
  8
LAYER_1
 62
   242
 10
-39.3068
 20
73.4766
 30
0.0
  0
VERTEX
  5
228
  8
LAYER_1
 62
   242
 10
-39.2048
 20
73.8054
 30
0.0
  0
VERTEX
  5
229
  8
LAYER_1
 62
   242
 10
-39.0433
 20
74.1028
 30
0.0
  0
VERTEX
  5
22A
  8
LAYER_1
 62
   242
 10
-38.8295
 20
74.362
 30
0.0
  0
VERTEX
  5
22B
  8
LAYER_1
 62
   242
 10
-38.5703
 20
74.5758
 30
0.0
  0
VERTEX
  5
22C
  8
LAYER_1
 62
   242
 10
-38.2728
 20
74.7373
 30
0.0
  0
VERTEX
  5
22D
  8
LAYER_1
 62
   242
 10
-37.9441
 20
74.8393
 30
0.0
  0
VERTEX
  5
22E
  8
LAYER_1
 62
   242
 10
-37.5912
 20
74.8749
 30
0.0
  0
VERTEX
  5
22F
  8
LAYER_1
 62
   242
 10
-37.2383
 20
74.8393
 30
0.0
  0
VERTEX
  5
230
  8
LAYER_1
 62
   242
 10
-36.9096
 20
74.7373
 30
0.0
  0
VERTEX
  5
231
  8
LAYER_1
 62
   242
 10
-36.6121
 20
74.5758
 30
0.0
  0
VERTEX
  5
232
  8
LAYER_1
 62
   242
 10
-36.3529
 20
74.362
 30
0.0
  0
VERTEX
  5
233
  8
LAYER_1
 62
   242
 10
-36.1391
 20
74.1028
 30
0.0
  0
VERTEX
  5
234
  8
LAYER_1
 62
   242
 10
-35.9776
 20
73.8054
 30
0.0
  0
VERTEX
  5
235
  8
LAYER_1
 62
   242
 10
-35.8756
 20
73.4766
 30
0.0
  0
VERTEX
  5
236
  8
LAYER_1
 62
   242
 10
-35.84
 20
73.1237
 30
0.0
  0
VERTEX
  5
237
  8
LAYER_1
 62
   242
 10
-35.8756
 20
72.7708
 30
0.0
  0
VERTEX
  5
238
  8
LAYER_1
 62
   242
 10
-35.9776
 20
72.442
 30
0.0
  0
VERTEX
  5
239
  8
LAYER_1
 62
   242
 10
-36.1391
 20
72.1446
 30
0.0
  0
VERTEX
  5
23A
  8
LAYER_1
 62
   242
 10
-36.3529
 20
71.8854
 30
0.0
  0
VERTEX
  5
23B
  8
LAYER_1
 62
   242
 10
-36.6121
 20
71.6716
 30
0.0
  0
VERTEX
  5
23C
  8
LAYER_1
 62
   242
 10
-36.9096
 20
71.5101
 30
0.0
  0
VERTEX
  5
23D
  8
LAYER_1
 62
   242
 10
-37.2383
 20
71.4081
 30
0.0
  0
VERTEX
  5
23E
  8
LAYER_1
 62
   242
 10
-37.5912
 20
71.3725
 30
0.0
  0
SEQEND
  5
23F
  8
LAYER_1
 62
   242
  0
POLYLINE
  5
5A
  8
LAYER_1
 62
   242
 66
     1
 10
0.0
 20
0.0
 30
0.0
 70
     1
  0
VERTEX
  5
240
  8
LAYER_1
 62
   242
 10
32.4088
 20
71.5432
 30
0.0
  0
VERTEX
  5
241
  8
LAYER_1
 62
   242
 10
32.0701
 20
71.5773
 30
0.0
  0
VERTEX
  5
242
  8
LAYER_1
 62
   242
 10
31.7547
 20
71.6753
 30
0.0
  0
VERTEX
  5
243
  8
LAYER_1
 62
   242
 10
31.4692
 20
71.8302
 30
0.0
  0
VERTEX
  5
244
  8
LAYER_1
 62
   242
 10
31.2205
 20
72.0354
 30
0.0
  0
VERTEX
  5
245
  8
LAYER_1
 62
   242
 10
31.0153
 20
72.2841
 30
0.0
  0
VERTEX
  5
246
  8
LAYER_1
 62
   242
 10
30.8604
 20
72.5695
 30
0.0
  0
VERTEX
  5
247
  8
LAYER_1
 62
   242
 10
30.7624
 20
72.885
 30
0.0
  0
VERTEX
  5
248
  8
LAYER_1
 62
   242
 10
30.7283
 20
73.2237
 30
0.0
  0
VERTEX
  5
249
  8
LAYER_1
 62
   242
 10
30.7624
 20
73.5624
 30
0.0
  0
VERTEX
  5
24A
  8
LAYER_1
 62
   242
 10
30.8604
 20
73.8779
 30
0.0
  0
VERTEX
  5
24B
  8
LAYER_1
 62
   242
 10
31.0153
 20
74.1633
 30
0.0
  0
VERTEX
  5
24C
  8
LAYER_1
 62
   242
 10
31.2205
 20
74.412
 30
0.0
  0
VERTEX
  5
24D
  8
LAYER_1
 62
   242
 10
31.4692
 20
74.6172
 30
0.0
  0
VERTEX
  5
24E
  8
LAYER_1
 62
   242
 10
31.7547
 20
74.7722
 30
0.0
  0
VERTEX
  5
24F
  8
LAYER_1
 62
   242
 10
32.0701
 20
74.8701
 30
0.0
  0
VERTEX
  5
250
  8
LAYER_1
 62
   242
 10
32.4088
 20
74.9042
 30
0.0
  0
VERTEX
  5
251
  8
LAYER_1
 62
   242
 10
32.7475
 20
74.8701
 30
0.0
  0
VERTEX
  5
252
  8
LAYER_1
 62
   242
 10
33.0629
 20
74.7722
 30
0.0
  0
VERTEX
  5
253
  8
LAYER_1
 62
   242
 10
33.3484
 20
74.6172
 30
0.0
  0
VERTEX
  5
254
  8
LAYER_1
 62
   242
 10
33.5971
 20
74.412
 30
0.0
  0
VERTEX
  5
255
  8
LAYER_1
 62
   242
 10
33.8023
 20
74.1633
 30
0.0
  0
VERTEX
  5
256
  8
LAYER_1
 62
   242
 10
33.9572
 20
73.8779
 30
0.0
  0
VERTEX
  5
257
  8
LAYER_1
 62
   242
 10
34.0552
 20
73.5624
 30
0.0
  0
VERTEX
  5
258
  8
LAYER_1
 62
   242
 10
34.0893
 20
73.2237
 30
0.0
  0
VERTEX
  5
259
  8
LAYER_1
 62
   242
 10
34.0552
 20
72.885
 30
0.0
  0
VERTEX
  5
25A
  8
LAYER_1
 62
   242
 10
33.9572
 20
72.5695
 30
0.0
  0
VERTEX
  5
25B
  8
LAYER_1
 62
   242
 10
33.8023
 20
72.2841
 30
0.0
  0
VERTEX
  5
25C
  8
LAYER_1
 62
   242
 10
33.5971
 20
72.0354
 30
0.0
  0
VERTEX
  5
25D
  8
LAYER_1
 62
   242
 10
33.3484
 20
71.8302
 30
0.0
  0
VERTEX
  5
25E
  8
LAYER_1
 62
   242
 10
33.0629
 20
71.6753
 30
0.0
  0
VERTEX
  5
25F
  8
LAYER_1
 62
   242
 10
32.7475
 20
71.5773
 30
0.0
  0
VERTEX
  5
260
  8
LAYER_1
 62
   242
 10
32.4088
 20
71.5432
 30
0.0
  0
SEQEND
  5
261
  8
LAYER_1
 62
   242
  0
POLYLINE
  5
5B
  8
LAYER_1
 62
   242
 66
     1
 10
0.0
 20
0.0
 30
0.0
 70
     1
  0
VERTEX
  5
262
  8
LAYER_1
 62
   242
 10
67.4088
 20
71.3637
 30
0.0
  0
VERTEX
  5
263
  8
LAYER_1
 62
   242
 10
67.0541
 20
71.3995
 30
0.0
  0
VERTEX
  5
264
  8
LAYER_1
 62
   242
 10
66.7237
 20
71.502
 30
0.0
  0
VERTEX
  5
265
  8
LAYER_1
 62
   242
 10
66.4248
 20
71.6643
 30
0.0
  0
VERTEX
  5
266
  8
LAYER_1
 62
   242
 10
66.1643
 20
71.8792
 30
0.0
  0
VERTEX
  5
267
  8
LAYER_1
 62
   242
 10
65.9494
 20
72.1396
 30
0.0
  0
VERTEX
  5
268
  8
LAYER_1
 62
   242
 10
65.7871
 20
72.4386
 30
0.0
  0
VERTEX
  5
269
  8
LAYER_1
 62
   242
 10
65.6846
 20
72.769
 30
0.0
  0
VERTEX
  5
26A
  8
LAYER_1
 62
   242
 10
65.6488
 20
73.1237
 30
0.0
  0
VERTEX
  5
26B
  8
LAYER_1
 62
   242
 10
65.6846
 20
73.4784
 30
0.0
  0
VERTEX
  5
26C
  8
LAYER_1
 62
   242
 10
65.7871
 20
73.8088
 30
0.0
  0
VERTEX
  5
26D
  8
LAYER_1
 62
   242
 10
65.9494
 20
74.1078
 30
0.0
  0
VERTEX
  5
26E
  8
LAYER_1
 62
   242
 10
66.1643
 20
74.3682
 30
0.0
  0
VERTEX
  5
26F
  8
LAYER_1
 62
   242
 10
66.4248
 20
74.5831
 30
0.0
  0
VERTEX
  5
270
  8
LAYER_1
 62
   242
 10
66.7237
 20
74.7454
 30
0.0
  0
VERTEX
  5
271
  8
LAYER_1
 62
   242
 10
67.0541
 20
74.8479
 30
0.0
  0
VERTEX
  5
272
  8
LAYER_1
 62
   242
 10
67.4088
 20
74.8837
 30
0.0
  0
VERTEX
  5
273
  8
LAYER_1
 62
   242
 10
67.7635
 20
74.8479
 30
0.0
  0
VERTEX
  5
274
  8
LAYER_1
 62
   242
 10
68.0939
 20
74.7454
 30
0.0
  0
VERTEX
  5
275
  8
LAYER_1
 62
   242
 10
68.3928
 20
74.5831
 30
0.0
  0
VERTEX
  5
276
  8
LAYER_1
 62
   242
 10
68.6533
 20
74.3682
 30
0.0
  0
VERTEX
  5
277
  8
LAYER_1
 62
   242
 10
68.8682
 20
74.1078
 30
0.0
  0
VERTEX
  5
278
  8
LAYER_1
 62
   242
 10
69.0305
 20
73.8088
 30
0.0
  0
VERTEX
  5
279
  8
LAYER_1
 62
   242
 10
69.133
 20
73.4784
 30
0.0
  0
VERTEX
  5
27A
  8
LAYER_1
 62
   242
 10
69.1688
 20
73.1237
 30
0.0
  0
VERTEX
  5
27B
  8
LAYER_1
 62
   242
 10
69.133
 20
72.769
 30
0.0
  0
VERTEX
  5
27C
  8
LAYER_1
 62
   242
 10
69.0305
 20
72.4386
 30
0.0
  0
VERTEX
  5
27D
  8
LAYER_1
 62
   242
 10
68.8682
 20
72.1396
 30
0.0
  0
VERTEX
  5
27E
  8
LAYER_1
 62
   242
 10
68.6533
 20
71.8792
 30
0.0
  0
VERTEX
  5
27F
  8
LAYER_1
 62
   242
 10
68.3928
 20
71.6643
 30
0.0
  0
VERTEX
  5
280
  8
LAYER_1
 62
   242
 10
68.0939
 20
71.502
 30
0.0
  0
VERTEX
  5
281
  8
LAYER_1
 62
   242
 10
67.7635
 20
71.3995
 30
0.0
  0
VERTEX
  5
282
  8
LAYER_1
 62
   242
 10
67.4088
 20
71.3637
 30
0.0
  0
SEQEND
  5
283
  8
LAYER_1
 62
   242
  0
POLYLINE
  5
5C
  8
LAYER_1
 62
   242
 66
     1
 10
0.0
 20
0.0
 30
0.0
 70
     1
  0
VERTEX
  5
284
  8
LAYER_1
 62
   242
 10
102.4088
 20
71.3426
 30
0.0
  0
VERTEX
  5
285
  8
LAYER_1
 62
   242
 10
102.0499
 20
71.3788
 30
0.0
  0
VERTEX
  5
286
  8
LAYER_1
 62
   242
 10
101.7155
 20
71.4826
 30
0.0
  0
VERTEX
  5
287
  8
LAYER_1
 62
   242
 10
101.413
 20
71.6468
 30
0.0
  0
VERTEX
  5
288
  8
LAYER_1
 62
   242
 10
101.1494
 20
71.8642
 30
0.0
  0
VERTEX
  5
289
  8
LAYER_1
 62
   242
 10
100.9319
 20
72.1278
 30
0.0
  0
VERTEX
  5
28A
  8
LAYER_1
 62
   242
 10
100.7677
 20
72.4304
 30
0.0
  0
VERTEX
  5
28B
  8
LAYER_1
 62
   242
 10
100.6639
 20
72.7647
 30
0.0
  0
VERTEX
  5
28C
  8
LAYER_1
 62
   242
 10
100.6277
 20
73.1237
 30
0.0
  0
VERTEX
  5
28D
  8
LAYER_1
 62
   242
 10
100.6639
 20
73.4827
 30
0.0
  0
VERTEX
  5
28E
  8
LAYER_1
 62
   242
 10
100.7677
 20
73.817
 30
0.0
  0
VERTEX
  5
28F
  8
LAYER_1
 62
   242
 10
100.9319
 20
74.1196
 30
0.0
  0
VERTEX
  5
290
  8
LAYER_1
 62
   242
 10
101.1494
 20
74.3832
 30
0.0
  0
VERTEX
  5
291
  8
LAYER_1
 62
   242
 10
101.413
 20
74.6006
 30
0.0
  0
VERTEX
  5
292
  8
LAYER_1
 62
   242
 10
101.7155
 20
74.7649
 30
0.0
  0
VERTEX
  5
293
  8
LAYER_1
 62
   242
 10
102.0499
 20
74.8686
 30
0.0
  0
VERTEX
  5
294
  8
LAYER_1
 62
   242
 10
102.4088
 20
74.9048
 30
0.0
  0
VERTEX
  5
295
  8
LAYER_1
 62
   242
 10
102.7677
 20
74.8686
 30
0.0
  0
VERTEX
  5
296
  8
LAYER_1
 62
   242
 10
103.1021
 20
74.7649
 30
0.0
  0
VERTEX
  5
297
  8
LAYER_1
 62
   242
 10
103.4046
 20
74.6006
 30
0.0
  0
VERTEX
  5
298
  8
LAYER_1
 62
   242
 10
103.6682
 20
74.3832
 30
0.0
  0
VERTEX
  5
299
  8
LAYER_1
 62
   242
 10
103.8857
 20
74.1196
 30
0.0
  0
VERTEX
  5
29A
  8
LAYER_1
 62
   242
 10
104.0499
 20
73.817
 30
0.0
  0
VERTEX
  5
29B
  8
LAYER_1
 62
   242
 10
104.1537
 20
73.4827
 30
0.0
  0
VERTEX
  5
29C
  8
LAYER_1
 62
   242
 10
104.1899
 20
73.1237
 30
0.0
  0
VERTEX
  5
29D
  8
LAYER_1
 62
   242
 10
104.1537
 20
72.7647
 30
0.0
  0
VERTEX
  5
29E
  8
LAYER_1
 62
   242
 10
104.0499
 20
72.4304
 30
0.0
  0
VERTEX
  5
29F
  8
LAYER_1
 62
   242
 10
103.8857
 20
72.1278
 30
0.0
  0
VERTEX
  5
2A0
  8
LAYER_1
 62
   242
 10
103.6682
 20
71.8642
 30
0.0
  0
VERTEX
  5
2A1
  8
LAYER_1
 62
   242
 10
103.4046
 20
71.6468
 30
0.0
  0
VERTEX
  5
2A2
  8
LAYER_1
 62
   242
 10
103.1021
 20
71.4826
 30
0.0
  0
VERTEX
  5
2A3
  8
LAYER_1
 62
   242
 10
102.7677
 20
71.3788
 30
0.0
  0
VERTEX
  5
2A4
  8
LAYER_1
 62
   242
 10
102.4088
 20
71.3426
 30
0.0
  0
SEQEND
  5
2A5
  8
LAYER_1
 62
   242
  0
POLYLINE
  5
5D
  8
LAYER_1
 62
   242
 66
     1
 10
0.0
 20
0.0
 30
0.0
  0
VERTEX
  5
2A6
  8
LAYER_1
 62
   242
 10
2.1683
 20
103.0237
 30
0.0
  0
VERTEX
  5
2A7
  8
LAYER_1
 62
   242
 10
2.1683
 20
117.6268
 30
0.0
  0
VERTEX
  5
2A8
  8
LAYER_1
 62
   242
 10
2.2744
 20
118.6707
 30
0.0
  0
VERTEX
  5
2A9
  8
LAYER_1
 62
   242
 10
2.5784
 20
119.6446
 30
0.0
  0
VERTEX
  5
2AA
  8
LAYER_1
 62
   242
 10
3.059
 20
120.5272
 30
0.0
  0
VERTEX
  5
2AB
  8
LAYER_1
 62
   242
 10
3.6949
 20
121.2971
 30
0.0
  0
VERTEX
  5
2AC
  8
LAYER_1
 62
   242
 10
4.4648
 20
121.933
 30
0.0
  0
VERTEX
  5
2AD
  8
LAYER_1
 62
   242
 10
5.3473
 20
122.4136
 30
0.0
  0
VERTEX
  5
2AE
  8
LAYER_1
 62
   242
 10
6.3213
 20
122.7176
 30
0.0
  0
VERTEX
  5
2AF
  8
LAYER_1
 62
   242
 10
7.3652
 20
122.8237
 30
0.0
  0
VERTEX
  5
2B0
  8
LAYER_1
 62
   242
 10
69.272
 20
122.8237
 30
0.0
  0
VERTEX
  5
2B1
  8
LAYER_1
 62
   242
 10
70.3159
 20
122.7176
 30
0.0
  0
VERTEX
  5
2B2
  8
LAYER_1
 62
   242
 10
71.2898
 20
122.4136
 30
0.0
  0
VERTEX
  5
2B3
  8
LAYER_1
 62
   242
 10
72.1723
 20
121.933
 30
0.0
  0
VERTEX
  5
2B4
  8
LAYER_1
 62
   242
 10
72.9422
 20
121.2971
 30
0.0
  0
VERTEX
  5
2B5
  8
LAYER_1
 62
   242
 10
73.5782
 20
120.5272
 30
0.0
  0
VERTEX
  5
2B6
  8
LAYER_1
 62
   242
 10
74.0588
 20
119.6447
 30
0.0
  0
VERTEX
  5
2B7
  8
LAYER_1
 62
   242
 10
74.3628
 20
118.6707
 30
0.0
  0
VERTEX
  5
2B8
  8
LAYER_1
 62
   242
 10
74.4689
 20
117.6268
 30
0.0
  0
VERTEX
  5
2B9
  8
LAYER_1
 62
   242
 10
74.4689
 20
103.0237
 30
0.0
  0
SEQEND
  5
2BA
  8
LAYER_1
 62
   242
  0
POLYLINE
  5
5E
  8
LAYER_1
 62
   242
 66
     1
 10
0.0
 20
0.0
 30
0.0
  0
VERTEX
  5
2BB
  8
LAYER_1
 62
   242
 10
2.1683
 20
103.0237
 30
0.0
  0
VERTEX
  5
2BC
  8
LAYER_1
 62
   242
 10
-164.6708
 20
103.0237
 30
0.0
  0
VERTEX
  5
2BD
  8
LAYER_1
 62
   242
 10
-167.2663
 20
102.7599
 30
0.0
  0
VERTEX
  5
2BE
  8
LAYER_1
 62
   242
 10
-169.6876
 20
102.004
 30
0.0
  0
VERTEX
  5
2BF
  8
LAYER_1
 62
   242
 10
-171.8818
 20
100.8089
 30
0.0
  0
VERTEX
  5
2C0
  8
LAYER_1
 62
   242
 10
-173.7959
 20
99.2277
 30
0.0
  0
VERTEX
  5
2C1
  8
LAYER_1
 62
   242
 10
-175.3768
 20
97.3135
 30
0.0
  0
VERTEX
  5
2C2
  8
LAYER_1
 62
   242
 10
-176.5717
 20
95.1195
 30
0.0
  0
VERTEX
  5
2C3
  8
LAYER_1
 62
   242
 10
-177.3275
 20
92.6985
 30
0.0
  0
VERTEX
  5
2C4
  8
LAYER_1
 62
   242
 10
-177.5912
 20
90.1037
 30
0.0
  0
VERTEX
  5
2C5
  8
LAYER_1
 62
   242
 10
-177.5912
 20
55.9437
 30
0.0
  0
VERTEX
  5
2C6
  8
LAYER_1
 62
   242
 10
-177.3275
 20
53.3489
 30
0.0
  0
VERTEX
  5
2C7
  8
LAYER_1
 62
   242
 10
-176.5717
 20
50.928
 30
0.0
  0
VERTEX
  5
2C8
  8
LAYER_1
 62
   242
 10
-175.3768
 20
48.7339
 30
0.0
  0
VERTEX
  5
2C9
  8
LAYER_1
 62
   242
 10
-173.7959
 20
46.8197
 30
0.0
  0
VERTEX
  5
2CA
  8
LAYER_1
 62
   242
 10
-171.8818
 20
45.2385
 30
0.0
  0
VERTEX
  5
2CB
  8
LAYER_1
 62
   242
 10
-169.6876
 20
44.0435
 30
0.0
  0
VERTEX
  5
2CC
  8
LAYER_1
 62
   242
 10
-167.2663
 20
43.2875
 30
0.0
  0
VERTEX
  5
2CD
  8
LAYER_1
 62
   242
 10
-164.6708
 20
43.0237
 30
0.0
  0
VERTEX
  5
2CE
  8
LAYER_1
 62
   242
 10
159.4884
 20
43.0237
 30
0.0
  0
VERTEX
  5
2CF
  8
LAYER_1
 62
   242
 10
162.0839
 20
43.2875
 30
0.0
  0
VERTEX
  5
2D0
  8
LAYER_1
 62
   242
 10
164.5052
 20
44.0435
 30
0.0
  0
VERTEX
  5
2D1
  8
LAYER_1
 62
   242
 10
166.6994
 20
45.2385
 30
0.0
  0
VERTEX
  5
2D2
  8
LAYER_1
 62
   242
 10
168.6135
 20
46.8197
 30
0.0
  0
VERTEX
  5
2D3
  8
LAYER_1
 62
   242
 10
170.1944
 20
48.7339
 30
0.0
  0
VERTEX
  5
2D4
  8
LAYER_1
 62
   242
 10
171.3893
 20
50.928
 30
0.0
  0
VERTEX
  5
2D5
  8
LAYER_1
 62
   242
 10
172.1451
 20
53.3489
 30
0.0
  0
VERTEX
  5
2D6
  8
LAYER_1
 62
   242
 10
172.4088
 20
55.9437
 30
0.0
  0
VERTEX
  5
2D7
  8
LAYER_1
 62
   242
 10
172.4088
 20
90.1037
 30
0.0
  0
VERTEX
  5
2D8
  8
LAYER_1
 62
   242
 10
172.1451
 20
92.6985
 30
0.0
  0
VERTEX
  5
2D9
  8
LAYER_1
 62
   242
 10
171.3893
 20
95.1194
 30
0.0
  0
VERTEX
  5
2DA
  8
LAYER_1
 62
   242
 10
170.1944
 20
97.3135
 30
0.0
  0
VERTEX
  5
2DB
  8
LAYER_1
 62
   242
 10
168.6135
 20
99.2277
 30
0.0
  0
VERTEX
  5
2DC
  8
LAYER_1
 62
   242
 10
166.6994
 20
100.8088
 30
0.0
  0
VERTEX
  5
2DD
  8
LAYER_1
 62
   242
 10
164.5052
 20
102.0039
 30
0.0
  0
VERTEX
  5
2DE
  8
LAYER_1
 62
   242
 10
162.0839
 20
102.7599
 30
0.0
  0
VERTEX
  5
2DF
  8
LAYER_1
 62
   242
 10
159.4884
 20
103.0237
 30
0.0
  0
VERTEX
  5
2E0
  8
LAYER_1
 62
   242
 10
74.4689
 20
103.0237
 30
0.0
  0
SEQEND
  5
2E1
  8
LAYER_1
 62
   242
  0
POLYLINE
  5
5F
  8
LAYER_1
 62
   242
 66
     1
 10
0.0
 20
0.0
 30
0.0
 70
     1
  0
VERTEX
  5
2E2
  8
LAYER_1
 62
   242
 10
-118.475
 20
-36.457
 30
0.0
  0
VERTEX
  5
2E3
  8
LAYER_1
 62
   242
 10
-114.225
 20
-36.457
 30
0.0
  0
VERTEX
  5
2E4
  8
LAYER_1
 62
   242
 10
-139.225
 20
-86.457
 30
0.0
  0
VERTEX
  5
2E5
  8
LAYER_1
 62
   242
 10
-142.475
 20
-86.4569
 30
0.0
  0
VERTEX
  5
2E6
  8
LAYER_1
 62
   242
 10
-142.475
 20
-61.457
 30
0.0
  0
VERTEX
  5
2E7
  8
LAYER_1
 62
   242
 10
-145.975
 20
-61.457
 30
0.0
  0
VERTEX
  5
2E8
  8
LAYER_1
 62
   242
 10
-145.975
 20
-86.4569
 30
0.0
  0
VERTEX
  5
2E9
  8
LAYER_1
 62
   242
 10
-149.225
 20
-86.457
 30
0.0
  0
VERTEX
  5
2EA
  8
LAYER_1
 62
   242
 10
-174.225
 20
-36.457
 30
0.0
  0
VERTEX
  5
2EB
  8
LAYER_1
 62
   242
 10
-169.975
 20
-36.457
 30
0.0
  0
VERTEX
  5
2EC
  8
LAYER_1
 62
   242
 10
-169.975
 20
-32.957
 30
0.0
  0
VERTEX
  5
2ED
  8
LAYER_1
 62
   242
 10
-159.975
 20
-32.957
 30
0.0
  0
VERTEX
  5
2EE
  8
LAYER_1
 62
   242
 10
-159.975
 20
-36.457
 30
0.0
  0
VERTEX
  5
2EF
  8
LAYER_1
 62
   242
 10
-128.475
 20
-36.457
 30
0.0
  0
VERTEX
  5
2F0
  8
LAYER_1
 62
   242
 10
-128.475
 20
-32.957
 30
0.0
  0
VERTEX
  5
2F1
  8
LAYER_1
 62
   242
 10
-118.475
 20
-32.957
 30
0.0
  0
VERTEX
  5
2F2
  8
LAYER_1
 62
   242
 10
-118.475
 20
-36.457
 30
0.0
  0
SEQEND
  5
2F3
  8
LAYER_1
 62
   242
  0
POLYLINE
  5
60
  8
LAYER_1
 62
   242
 66
     1
 10
0.0
 20
0.0
 30
0.0
  0
VERTEX
  5
2F4
  8
LAYER_1
 62
   242
 10
-131.0912
 20
70.5237
 30
0.0
  0
VERTEX
  5
2F5
  8
LAYER_1
 62
   242
 10
-133.9934
 20
70.5237
 30
0.0
  0
SEQEND
  5
2F6
  8
LAYER_1
 62
   242
  0
POLYLINE
  5
61
  8
LAYER_1
 62
   242
 66
     1
 10
0.0
 20
0.0
 30
0.0
  0
VERTEX
  5
2F7
  8
LAYER_1
 62
   242
 10
-131.0912
 20
75.5237
 30
0.0
  0
VERTEX
  5
2F8
  8
LAYER_1
 62
   242
 10
-130.5874
 20
75.4729
 30
0.0
  0
VERTEX
  5
2F9
  8
LAYER_1
 62
   242
 10
-130.1181
 20
75.3272
 30
0.0
  0
VERTEX
  5
2FA
  8
LAYER_1
 62
   242
 10
-129.6934
 20
75.0967
 30
0.0
  0
VERTEX
  5
2FB
  8
LAYER_1
 62
   242
 10
-129.3234
 20
74.7915
 30
0.0
  0
VERTEX
  5
2FC
  8
LAYER_1
 62
   242
 10
-129.0182
 20
74.4215
 30
0.0
  0
VERTEX
  5
2FD
  8
LAYER_1
 62
   242
 10
-128.7877
 20
73.9968
 30
0.0
  0
VERTEX
  5
2FE
  8
LAYER_1
 62
   242
 10
-128.642
 20
73.5275
 30
0.0
  0
VERTEX
  5
2FF
  8
LAYER_1
 62
   242
 10
-128.5912
 20
73.0237
 30
0.0
  0
VERTEX
  5
300
  8
LAYER_1
 62
   242
 10
-128.642
 20
72.5199
 30
0.0
  0
VERTEX
  5
301
  8
LAYER_1
 62
   242
 10
-128.7877
 20
72.0506
 30
0.0
  0
VERTEX
  5
302
  8
LAYER_1
 62
   242
 10
-129.0182
 20
71.6259
 30
0.0
  0
VERTEX
  5
303
  8
LAYER_1
 62
   242
 10
-129.3234
 20
71.2559
 30
0.0
  0
VERTEX
  5
304
  8
LAYER_1
 62
   242
 10
-129.6934
 20
70.9507
 30
0.0
  0
VERTEX
  5
305
  8
LAYER_1
 62
   242
 10
-130.1181
 20
70.7202
 30
0.0
  0
VERTEX
  5
306
  8
LAYER_1
 62
   242
 10
-130.5874
 20
70.5745
 30
0.0
  0
VERTEX
  5
307
  8
LAYER_1
 62
   242
 10
-131.0912
 20
70.5237
 30
0.0
  0
SEQEND
  5
308
  8
LAYER_1
 62
   242
  0
POLYLINE
  5
62
  8
LAYER_1
 62
   242
 66
     1
 10
0.0
 20
0.0
 30
0.0
  0
VERTEX
  5
309
  8
LAYER_1
 62
   242
 10
-131.0912
 20
75.5237
 30
0.0
  0
VERTEX
  5
30A
  8
LAYER_1
 62
   242
 10
-133.9159
 20
75.5237
 30
0.0
  0
SEQEND
  5
30B
  8
LAYER_1
 62
   242
  0
POLYLINE
  5
63
  8
LAYER_1
 62
   242
 66
     1
 10
0.0
 20
0.0
 30
0.0
  0
VERTEX
  5
30C
  8
LAYER_1
 62
   242
 10
-133.9283
 20
70.5154
 30
0.0
  0
VERTEX
  5
30D
  8
LAYER_1
 62
   242
 10
-134.4709
 20
69.0296
 30
0.0
  0
VERTEX
  5
30E
  8
LAYER_1
 62
   242
 10
-135.2348
 20
67.6811
 30
0.0
  0
VERTEX
  5
30F
  8
LAYER_1
 62
   242
 10
-136.1955
 20
66.4888
 30
0.0
  0
VERTEX
  5
310
  8
LAYER_1
 62
   242
 10
-137.3283
 20
65.4713
 30
0.0
  0
VERTEX
  5
311
  8
LAYER_1
 62
   242
 10
-138.6088
 20
64.6473
 30
0.0
  0
VERTEX
  5
312
  8
LAYER_1
 62
   242
 10
-140.0125
 20
64.0355
 30
0.0
  0
VERTEX
  5
313
  8
LAYER_1
 62
   242
 10
-141.5148
 20
63.6548
 30
0.0
  0
VERTEX
  5
314
  8
LAYER_1
 62
   242
 10
-143.0912
 20
63.5237
 30
0.0
  0
VERTEX
  5
315
  8
LAYER_1
 62
   242
 10
-145.0058
 20
63.7167
 30
0.0
  0
VERTEX
  5
316
  8
LAYER_1
 62
   242
 10
-146.789
 20
64.2703
 30
0.0
  0
VERTEX
  5
317
  8
LAYER_1
 62
   242
 10
-148.4027
 20
65.1462
 30
0.0
  0
VERTEX
  5
318
  8
LAYER_1
 62
   242
 10
-149.8087
 20
66.3062
 30
0.0
  0
VERTEX
  5
319
  8
LAYER_1
 62
   242
 10
-150.9687
 20
67.7122
 30
0.0
  0
VERTEX
  5
31A
  8
LAYER_1
 62
   242
 10
-151.8446
 20
69.3259
 30
0.0
  0
VERTEX
  5
31B
  8
LAYER_1
 62
   242
 10
-152.3982
 20
71.1091
 30
0.0
  0
VERTEX
  5
31C
  8
LAYER_1
 62
   242
 10
-152.5912
 20
73.0237
 30
0.0
  0
VERTEX
  5
31D
  8
LAYER_1
 62
   242
 10
-152.3982
 20
74.9383
 30
0.0
  0
VERTEX
  5
31E
  8
LAYER_1
 62
   242
 10
-151.8446
 20
76.7215
 30
0.0
  0
VERTEX
  5
31F
  8
LAYER_1
 62
   242
 10
-150.9687
 20
78.3352
 30
0.0
  0
VERTEX
  5
320
  8
LAYER_1
 62
   242
 10
-149.8087
 20
79.7412
 30
0.0
  0
VERTEX
  5
321
  8
LAYER_1
 62
   242
 10
-148.4027
 20
80.9012
 30
0.0
  0
VERTEX
  5
322
  8
LAYER_1
 62
   242
 10
-146.789
 20
81.7771
 30
0.0
  0
VERTEX
  5
323
  8
LAYER_1
 62
   242
 10
-145.0058
 20
82.3307
 30
0.0
  0
VERTEX
  5
324
  8
LAYER_1
 62
   242
 10
-143.0912
 20
82.5237
 30
0.0
  0
VERTEX
  5
325
  8
LAYER_1
 62
   242
 10
-141.5086
 20
82.3916
 30
0.0
  0
VERTEX
  5
326
  8
LAYER_1
 62
   242
 10
-140.001
 20
82.0079
 30
0.0
  0
VERTEX
  5
327
  8
LAYER_1
 62
   242
 10
-138.5931
 20
81.3917
 30
0.0
  0
VERTEX
  5
328
  8
LAYER_1
 62
   242
 10
-137.3096
 20
80.5618
 30
0.0
  0
VERTEX
  5
329
  8
LAYER_1
 62
   242
 10
-136.1755
 20
79.5374
 30
0.0
  0
VERTEX
  5
32A
  8
LAYER_1
 62
   242
 10
-135.2153
 20
78.3374
 30
0.0
  0
VERTEX
  5
32B
  8
LAYER_1
 62
   242
 10
-134.4539
 20
76.9808
 30
0.0
  0
VERTEX
  5
32C
  8
LAYER_1
 62
   242
 10
-133.916
 20
75.4865
 30
0.0
  0
SEQEND
  5
32D
  8
LAYER_1
 62
   242
  0
POLYLINE
  5
64
  8
LAYER_1
 62
   242
 66
     1
 10
0.0
 20
0.0
 30
0.0
  0
VERTEX
  5
32E
  8
LAYER_1
 62
   242
 10
125.9088
 20
75.5237
 30
0.0
  0
VERTEX
  5
32F
  8
LAYER_1
 62
   242
 10
128.811
 20
75.5237
 30
0.0
  0
SEQEND
  5
330
  8
LAYER_1
 62
   242
  0
POLYLINE
  5
65
  8
LAYER_1
 62
   242
 66
     1
 10
0.0
 20
0.0
 30
0.0
  0
VERTEX
  5
331
  8
LAYER_1
 62
   242
 10
125.9088
 20
70.5237
 30
0.0
  0
VERTEX
  5
332
  8
LAYER_1
 62
   242
 10
125.405
 20
70.5745
 30
0.0
  0
VERTEX
  5
333
  8
LAYER_1
 62
   242
 10
124.9357
 20
70.7202
 30
0.0
  0
VERTEX
  5
334
  8
LAYER_1
 62
   242
 10
124.511
 20
70.9507
 30
0.0
  0
VERTEX
  5
335
  8
LAYER_1
 62
   242
 10
124.141
 20
71.2559
 30
0.0
  0
VERTEX
  5
336
  8
LAYER_1
 62
   242
 10
123.8358
 20
71.6259
 30
0.0
  0
VERTEX
  5
337
  8
LAYER_1
 62
   242
 10
123.6053
 20
72.0506
 30
0.0
  0
VERTEX
  5
338
  8
LAYER_1
 62
   242
 10
123.4596
 20
72.5199
 30
0.0
  0
VERTEX
  5
339
  8
LAYER_1
 62
   242
 10
123.4088
 20
73.0237
 30
0.0
  0
VERTEX
  5
33A
  8
LAYER_1
 62
   242
 10
123.4596
 20
73.5275
 30
0.0
  0
VERTEX
  5
33B
  8
LAYER_1
 62
   242
 10
123.6053
 20
73.9968
 30
0.0
  0
VERTEX
  5
33C
  8
LAYER_1
 62
   242
 10
123.8358
 20
74.4215
 30
0.0
  0
VERTEX
  5
33D
  8
LAYER_1
 62
   242
 10
124.141
 20
74.7915
 30
0.0
  0
VERTEX
  5
33E
  8
LAYER_1
 62
   242
 10
124.511
 20
75.0967
 30
0.0
  0
VERTEX
  5
33F
  8
LAYER_1
 62
   242
 10
124.9357
 20
75.3272
 30
0.0
  0
VERTEX
  5
340
  8
LAYER_1
 62
   242
 10
125.405
 20
75.4729
 30
0.0
  0
VERTEX
  5
341
  8
LAYER_1
 62
   242
 10
125.9088
 20
75.5237
 30
0.0
  0
SEQEND
  5
342
  8
LAYER_1
 62
   242
  0
POLYLINE
  5
66
  8
LAYER_1
 62
   242
 66
     1
 10
0.0
 20
0.0
 30
0.0
  0
VERTEX
  5
343
  8
LAYER_1
 62
   242
 10
125.9088
 20
70.5237
 30
0.0
  0
VERTEX
  5
344
  8
LAYER_1
 62
   242
 10
128.7335
 20
70.5237
 30
0.0
  0
SEQEND
  5
345
  8
LAYER_1
 62
   242
  0
POLYLINE
  5
67
  8
LAYER_1
 62
   242
 66
     1
 10
0.0
 20
0.0
 30
0.0
  0
VERTEX
  5
346
  8
LAYER_1
 62
   242
 10
128.7459
 20
75.532
 30
0.0
  0
VERTEX
  5
347
  8
LAYER_1
 62
   242
 10
129.2885
 20
77.0178
 30
0.0
  0
VERTEX
  5
348
  8
LAYER_1
 62
   242
 10
130.0524
 20
78.3663
 30
0.0
  0
VERTEX
  5
349
  8
LAYER_1
 62
   242
 10
131.0131
 20
79.5586
 30
0.0
  0
VERTEX
  5
34A
  8
LAYER_1
 62
   242
 10
132.1459
 20
80.5762
 30
0.0
  0
VERTEX
  5
34B
  8
LAYER_1
 62
   242
 10
133.4264
 20
81.4001
 30
0.0
  0
VERTEX
  5
34C
  8
LAYER_1
 62
   242
 10
134.8301
 20
82.0119
 30
0.0
  0
VERTEX
  5
34D
  8
LAYER_1
 62
   242
 10
136.3324
 20
82.3926
 30
0.0
  0
VERTEX
  5
34E
  8
LAYER_1
 62
   242
 10
137.9088
 20
82.5237
 30
0.0
  0
VERTEX
  5
34F
  8
LAYER_1
 62
   242
 10
139.8234
 20
82.3307
 30
0.0
  0
VERTEX
  5
350
  8
LAYER_1
 62
   242
 10
141.6066
 20
81.7771
 30
0.0
  0
VERTEX
  5
351
  8
LAYER_1
 62
   242
 10
143.2203
 20
80.9012
 30
0.0
  0
VERTEX
  5
352
  8
LAYER_1
 62
   242
 10
144.6263
 20
79.7412
 30
0.0
  0
VERTEX
  5
353
  8
LAYER_1
 62
   242
 10
145.7863
 20
78.3352
 30
0.0
  0
VERTEX
  5
354
  8
LAYER_1
 62
   242
 10
146.6622
 20
76.7215
 30
0.0
  0
VERTEX
  5
355
  8
LAYER_1
 62
   242
 10
147.2158
 20
74.9383
 30
0.0
  0
VERTEX
  5
356
  8
LAYER_1
 62
   242
 10
147.4088
 20
73.0237
 30
0.0
  0
VERTEX
  5
357
  8
LAYER_1
 62
   242
 10
147.2158
 20
71.1091
 30
0.0
  0
VERTEX
  5
358
  8
LAYER_1
 62
   242
 10
146.6622
 20
69.3259
 30
0.0
  0
VERTEX
  5
359
  8
LAYER_1
 62
   242
 10
145.7863
 20
67.7122
 30
0.0
  0
VERTEX
  5
35A
  8
LAYER_1
 62
   242
 10
144.6263
 20
66.3062
 30
0.0
  0
VERTEX
  5
35B
  8
LAYER_1
 62
   242
 10
143.2203
 20
65.1462
 30
0.0
  0
VERTEX
  5
35C
  8
LAYER_1
 62
   242
 10
141.6066
 20
64.2703
 30
0.0
  0
VERTEX
  5
35D
  8
LAYER_1
 62
   242
 10
139.8234
 20
63.7167
 30
0.0
  0
VERTEX
  5
35E
  8
LAYER_1
 62
   242
 10
137.9088
 20
63.5237
 30
0.0
  0
VERTEX
  5
35F
  8
LAYER_1
 62
   242
 10
136.3262
 20
63.6558
 30
0.0
  0
VERTEX
  5
360
  8
LAYER_1
 62
   242
 10
134.8186
 20
64.0395
 30
0.0
  0
VERTEX
  5
361
  8
LAYER_1
 62
   242
 10
133.4107
 20
64.6557
 30
0.0
  0
VERTEX
  5
362
  8
LAYER_1
 62
   242
 10
132.1272
 20
65.4856
 30
0.0
  0
VERTEX
  5
363
  8
LAYER_1
 62
   242
 10
130.9931
 20
66.51
 30
0.0
  0
VERTEX
  5
364
  8
LAYER_1
 62
   242
 10
130.0329
 20
67.71
 30
0.0
  0
VERTEX
  5
365
  8
LAYER_1
 62
   242
 10
129.2715
 20
69.0666
 30
0.0
  0
VERTEX
  5
366
  8
LAYER_1
 62
   242
 10
128.7336
 20
70.5609
 30
0.0
  0
SEQEND
  5
367
  8
LAYER_1
 62
   242
  0
POLYLINE
  5
68
  8
LAYER_1
 62
   242
 66
     1
 10
0.0
 20
0.0
 30
0.0
 70
     1
  0
VERTEX
  5
368
  8
LAYER_1
 62
   242
 10
-123.4609
 20
-103.0942
 30
0.0
  0
VERTEX
  5
369
  8
LAYER_1
 62
   242
 10
-127.7109
 20
-103.0942
 30
0.0
  0
VERTEX
  5
36A
  8
LAYER_1
 62
   242
 10
-102.7109
 20
-53.0942
 30
0.0
  0
VERTEX
  5
36B
  8
LAYER_1
 62
   242
 10
-99.4609
 20
-53.0943
 30
0.0
  0
VERTEX
  5
36C
  8
LAYER_1
 62
   242
 10
-99.4609
 20
-78.0942
 30
0.0
  0
VERTEX
  5
36D
  8
LAYER_1
 62
   242
 10
-95.9609
 20
-78.0942
 30
0.0
  0
VERTEX
  5
36E
  8
LAYER_1
 62
   242
 10
-95.9609
 20
-53.0943
 30
0.0
  0
VERTEX
  5
36F
  8
LAYER_1
 62
   242
 10
-92.7109
 20
-53.0942
 30
0.0
  0
VERTEX
  5
370
  8
LAYER_1
 62
   242
 10
-67.7109
 20
-103.0942
 30
0.0
  0
VERTEX
  5
371
  8
LAYER_1
 62
   242
 10
-71.9609
 20
-103.0942
 30
0.0
  0
VERTEX
  5
372
  8
LAYER_1
 62
   242
 10
-71.9609
 20
-106.5942
 30
0.0
  0
VERTEX
  5
373
  8
LAYER_1
 62
   242
 10
-81.9609
 20
-106.5942
 30
0.0
  0
VERTEX
  5
374
  8
LAYER_1
 62
   242
 10
-81.9609
 20
-103.0942
 30
0.0
  0
VERTEX
  5
375
  8
LAYER_1
 62
   242
 10
-113.4609
 20
-103.0942
 30
0.0
  0
VERTEX
  5
376
  8
LAYER_1
 62
   242
 10
-113.4609
 20
-106.5942
 30
0.0
  0
VERTEX
  5
377
  8
LAYER_1
 62
   242
 10
-123.4609
 20
-106.5942
 30
0.0
  0
VERTEX
  5
378
  8
LAYER_1
 62
   242
 10
-123.4609
 20
-103.0942
 30
0.0
  0
SEQEND
  5
379
  8
LAYER_1
 62
   242
  0
ENDSEC
  0
EOF
