M48
;DRILL file {KiCad 4.0.4-stable} date 04/20/17 11:49:00
;FORMAT={-:-/ absolute / inch / decimal}
FMAT,2
INCH,TZ
T1C0.025
T2C0.031
T3C0.032
T4C0.032
T5C0.035
T6C0.039
T7C0.039
T8C0.040
T9C0.047
T10C0.098
T11C0.079
T12C0.118
%
G90
G05
M72
T1
X0.975Y-2.275
X1.15Y-2.275
X1.375Y-2.45
X1.5Y-1.75
X1.6Y-1.75
X1.65Y-2.5
X1.65Y-2.55
X1.75Y-1.35
X2.1Y-2.025
X2.125Y-3.1
X2.13Y-0.56
X2.15Y-1.45
X2.175Y-2.215
X2.225Y-3.2
X2.225Y-3.25
X2.225Y-3.3
X2.4Y-3.25
X2.4Y-3.3
X2.525Y-3.3
X2.525Y-3.825
X2.675Y-1.775
X3.65Y-2.8
X3.975Y-1.95
X3.975Y-2.6
X4.Y-0.9
X4.025Y-2.05
X4.025Y-2.125
X4.025Y-2.2
T2
X0.575Y-0.9
X0.7081Y-3.4819
X0.7081Y-3.5606
X0.7081Y-3.6394
X0.7081Y-3.7181
X0.7758Y-0.8606
X1.1581Y-3.4819
X1.1581Y-3.5606
X1.1581Y-3.6394
X1.1581Y-3.7181
X1.5831Y-3.4819
X1.5831Y-3.5606
X1.5831Y-3.6394
X1.5831Y-3.7181
X1.615Y-0.44
X1.695Y-0.44
X2.015Y-0.44
X2.0331Y-3.4819
X2.0331Y-3.5606
X2.0331Y-3.6394
X2.0331Y-3.7181
X2.095Y-0.44
X4.1569Y-2.3919
X4.1569Y-2.7669
X4.1569Y-3.1419
X4.1569Y-3.5169
X4.2356Y-2.3919
X4.2356Y-2.7669
X4.2356Y-3.1419
X4.2356Y-3.5169
X4.3144Y-2.3919
X4.3144Y-2.7669
X4.3144Y-3.1419
X4.3144Y-3.5169
X4.3931Y-2.3919
X4.3931Y-2.7669
X4.3931Y-3.1419
X4.3931Y-3.5169
T3
X0.625Y-1.025
X0.625Y-1.325
X0.625Y-1.425
X0.625Y-1.725
X0.75Y-1.025
X0.75Y-1.325
X0.75Y-1.95
X0.75Y-2.25
X0.85Y-0.375
X0.85Y-0.475
X1.4Y-1.875
X1.4Y-2.175
X1.65Y-1.55
X1.65Y-1.65
X1.675Y-0.675
X1.675Y-0.875
X1.7Y-1.1
X1.7Y-1.2
X2.15Y-1.1
X2.15Y-1.2
X2.175Y-1.625
X2.175Y-1.725
X2.425Y-1.475
X2.45Y-0.775
X2.45Y-1.075
X2.725Y-1.175
X2.725Y-1.275
X2.725Y-1.475
X3.025Y-2.075
X3.075Y-2.7
X3.275Y-2.7
X3.3Y-0.45
X3.325Y-2.075
X3.425Y-2.075
X3.6Y-0.45
X3.725Y-2.075
T4
X0.95Y-1.975
X0.95Y-2.075
X0.95Y-2.725
X0.95Y-2.825
X0.95Y-2.925
X0.95Y-3.025
X1.1Y-0.675
X1.1Y-0.775
X1.1Y-0.875
X1.1Y-0.975
X1.25Y-1.975
X1.25Y-2.075
X1.25Y-2.725
X1.25Y-2.825
X1.25Y-2.925
X1.25Y-3.025
X1.3Y-1.325
X1.3Y-1.425
X1.3Y-1.525
X1.3Y-1.625
X1.4Y-0.675
X1.4Y-0.775
X1.4Y-0.875
X1.4Y-0.975
X2.325Y-1.925
X2.325Y-2.525
X2.425Y-1.925
X2.425Y-2.525
X2.525Y-1.925
X2.525Y-2.525
X2.625Y-0.9
X2.625Y-1.925
X2.625Y-2.525
X2.725Y-0.9
X2.725Y-1.925
X2.725Y-2.525
X2.825Y-1.925
X2.825Y-2.525
X2.925Y-1.925
X2.925Y-2.525
X3.025Y-1.925
X3.025Y-2.525
X3.025Y-2.875
X3.025Y-2.975
X3.025Y-3.075
X3.025Y-3.175
X3.025Y-3.275
X3.025Y-3.375
X3.025Y-3.475
X3.025Y-3.575
X3.125Y-1.925
X3.125Y-2.525
X3.225Y-1.925
X3.225Y-2.525
X3.325Y-1.925
X3.325Y-2.525
X3.325Y-2.875
X3.325Y-2.975
X3.325Y-3.075
X3.325Y-3.175
X3.325Y-3.275
X3.325Y-3.375
X3.325Y-3.475
X3.325Y-3.575
X3.425Y-1.925
X3.425Y-2.525
X3.525Y-1.925
X3.525Y-2.525
X3.625Y-1.925
X3.625Y-2.525
X3.725Y-1.925
X3.725Y-2.525
T5
X2.554Y-0.324
X2.6753Y-0.324
X2.7934Y-0.324
T6
X0.575Y-0.25
X0.6301Y-0.6516
X1.59Y-2.85
T7
X0.325Y-1.075
X0.325Y-1.275
X0.325Y-1.475
X0.325Y-1.675
X0.325Y-1.875
X0.325Y-2.075
X0.325Y-2.275
X0.325Y-2.475
X0.325Y-2.675
X0.325Y-2.875
X0.325Y-3.075
X0.625Y-1.95
X0.625Y-2.32
X0.625Y-2.775
X0.625Y-3.145
X0.625Y-3.45
X0.625Y-3.55
X0.625Y-3.65
X0.625Y-3.75
X0.75Y-1.45
X0.75Y-1.82
X0.9Y-1.
X0.9Y-1.37
X1.075Y-3.45
X1.075Y-3.55
X1.075Y-3.65
X1.075Y-3.75
X1.08Y-1.125
X1.15Y-0.35
X1.35Y-0.35
X1.45Y-1.125
X1.5Y-3.45
X1.5Y-3.55
X1.5Y-3.65
X1.5Y-3.75
X1.55Y-0.35
X1.75Y-0.35
X1.9Y-1.55
X1.9Y-1.65
X1.9Y-1.75
X1.93Y-0.65
X1.93Y-0.775
X1.93Y-0.9
X1.95Y-0.35
X1.95Y-3.45
X1.95Y-3.55
X1.95Y-3.65
X1.95Y-3.75
X2.15Y-0.35
X2.225Y-3.375
X2.225Y-3.745
X2.3Y-0.65
X2.3Y-0.775
X2.3Y-0.9
X2.35Y-3.375
X2.35Y-3.745
X2.475Y-3.375
X2.475Y-3.745
X2.6Y-3.375
X2.6Y-3.745
X2.625Y-0.525
X2.725Y-0.525
X2.725Y-3.375
X2.725Y-3.745
X2.85Y-3.375
X2.85Y-3.745
X3.25Y-2.2
X3.255Y-0.325
X3.275Y-0.65
X3.375Y-0.65
X3.475Y-0.65
X3.575Y-0.65
X3.62Y-2.2
X3.625Y-0.325
X4.Y-0.4
X4.1Y-0.4
X4.125Y-2.475
X4.125Y-2.85
X4.125Y-3.225
X4.125Y-3.6
X4.175Y-0.65
X4.175Y-0.85
X4.175Y-1.125
X4.175Y-1.325
X4.2Y-0.4
X4.225Y-2.475
X4.225Y-2.85
X4.225Y-3.225
X4.225Y-3.6
X4.325Y-2.475
X4.325Y-2.85
X4.325Y-3.225
X4.325Y-3.6
X4.425Y-2.475
X4.425Y-2.85
X4.425Y-3.225
X4.425Y-3.6
X4.475Y-0.65
X4.475Y-0.85
X4.475Y-1.125
X4.475Y-1.325
T8
X3.175Y-0.875
X3.275Y-0.875
X3.375Y-0.875
X3.475Y-0.875
X3.575Y-0.875
X3.675Y-0.875
X4.45Y-1.575
X4.45Y-1.675
X4.45Y-1.775
X4.45Y-1.875
X4.45Y-1.975
X4.45Y-2.075
T9
X1.5Y-2.75
X1.5Y-2.95
X1.9Y-2.85
T10
X2.4194Y-0.324
X2.9312Y-0.324
T11
X3.1455Y-0.7667
X3.7163Y-0.7667
T12
X0.3Y-0.15
X0.3Y-3.6933
X2.9821Y-0.6886
X2.9821Y-1.5744
X3.8433Y-3.6933
X3.8679Y-0.6886
X3.8679Y-1.5744
X4.1744Y-1.5159
X4.1744Y-2.1852
X4.237Y-0.15
T0
M30
