G04 #@! TF.FileFunction,Soldermask,Bot*
%FSLAX46Y46*%
G04 Gerber Fmt 4.6, Leading zero omitted, Abs format (unit mm)*
G04 Created by KiCad (PCBNEW 4.0.4-stable) date 04/20/17 11:48:58*
%MOMM*%
%LPD*%
G01*
G04 APERTURE LIST*
%ADD10C,0.150000*%
%ADD11C,3.508000*%
%ADD12C,2.413000*%
%ADD13R,2.540000X2.540000*%
%ADD14C,2.540000*%
%ADD15C,3.048000*%
%ADD16R,2.082800X2.794000*%
%ADD17O,2.082800X2.794000*%
%ADD18R,3.007360X3.007360*%
%ADD19C,3.007360*%
%ADD20C,2.308000*%
%ADD21R,2.008000X2.008000*%
%ADD22C,2.008000*%
%ADD23R,2.308860X2.308860*%
%ADD24C,2.308860*%
%ADD25C,4.008120*%
%ADD26R,2.794000X2.082800*%
%ADD27O,2.794000X2.082800*%
%ADD28R,2.540000X2.235200*%
%ADD29O,2.540000X2.235200*%
%ADD30R,2.235200X2.540000*%
%ADD31O,2.235200X2.540000*%
%ADD32C,2.508000*%
%ADD33C,2.608580*%
%ADD34R,2.608580X2.608580*%
G04 APERTURE END LIST*
D10*
D11*
X107620000Y-3810000D03*
X97620000Y-93810000D03*
X7620000Y-93810000D03*
X7620000Y-3810000D03*
D12*
X83185000Y-68580000D03*
X78105000Y-68580000D03*
D13*
X21590000Y-9525000D03*
D14*
X21590000Y-12065000D03*
D13*
X54610000Y-30480000D03*
D14*
X54610000Y-27940000D03*
D13*
X41910000Y-39370000D03*
D14*
X41910000Y-41910000D03*
D13*
X43180000Y-27940000D03*
D14*
X43180000Y-30480000D03*
D13*
X55245000Y-43815000D03*
D14*
X55245000Y-41275000D03*
D13*
X69215000Y-29845000D03*
D14*
X69215000Y-32385000D03*
D15*
X22860000Y-25400000D03*
X22860000Y-34798000D03*
X19050000Y-36830000D03*
X19050000Y-46228000D03*
X82550000Y-55880000D03*
X91948000Y-55880000D03*
X56515000Y-85725000D03*
X56515000Y-95123000D03*
X62865000Y-85725000D03*
X62865000Y-95123000D03*
X69215000Y-85725000D03*
X69215000Y-95123000D03*
X59690000Y-85725000D03*
X59690000Y-95123000D03*
X66040000Y-85725000D03*
X66040000Y-95123000D03*
X72390000Y-85725000D03*
X72390000Y-95123000D03*
X36830000Y-28575000D03*
X27432000Y-28575000D03*
X58420000Y-16510000D03*
X49022000Y-16510000D03*
X58420000Y-19685000D03*
X49022000Y-19685000D03*
D14*
X69215000Y-22860000D03*
D13*
X66675000Y-22860000D03*
D15*
X92075000Y-8255000D03*
X82677000Y-8255000D03*
X15875000Y-49530000D03*
X15875000Y-58928000D03*
X15875000Y-70485000D03*
X15875000Y-79883000D03*
D14*
X33020000Y-33655000D03*
X33020000Y-36195000D03*
X33020000Y-38735000D03*
D13*
X33020000Y-41275000D03*
D15*
X58420000Y-22860000D03*
X49022000Y-22860000D03*
D13*
X83185000Y-16510000D03*
D14*
X85725000Y-16510000D03*
X88265000Y-16510000D03*
X90805000Y-16510000D03*
D11*
X98245000Y-17490000D03*
X98245000Y-39990000D03*
X75745000Y-39990000D03*
X75745000Y-17490000D03*
D12*
X14605000Y-6350000D03*
X16005000Y-16550000D03*
X14605000Y-22860000D03*
X19705000Y-21860000D03*
D16*
X59055000Y-64135000D03*
D17*
X61595000Y-64135000D03*
X64135000Y-64135000D03*
X66675000Y-64135000D03*
X69215000Y-64135000D03*
X71755000Y-64135000D03*
X74295000Y-64135000D03*
X76835000Y-64135000D03*
X79375000Y-64135000D03*
X81915000Y-64135000D03*
X84455000Y-64135000D03*
X86995000Y-64135000D03*
X89535000Y-64135000D03*
X92075000Y-64135000D03*
X94615000Y-64135000D03*
X94615000Y-48895000D03*
X92075000Y-48895000D03*
X89535000Y-48895000D03*
X86995000Y-48895000D03*
X84455000Y-48895000D03*
X81915000Y-48895000D03*
X79375000Y-48895000D03*
X76835000Y-48895000D03*
X74295000Y-48895000D03*
X71755000Y-48895000D03*
X69215000Y-48895000D03*
X66675000Y-48895000D03*
X64135000Y-48895000D03*
X61595000Y-48895000D03*
X59055000Y-48895000D03*
D14*
X42545000Y-22225000D03*
X42545000Y-17145000D03*
D18*
X29210000Y-8890000D03*
D19*
X34290000Y-8890000D03*
D18*
X49530000Y-8890000D03*
D19*
X54610000Y-8890000D03*
D20*
X51181000Y-11176000D03*
X53213000Y-11176000D03*
D18*
X39370000Y-8890000D03*
D19*
X44450000Y-8890000D03*
D20*
X41021000Y-11176000D03*
X43053000Y-11176000D03*
D13*
X15875000Y-87630000D03*
D14*
X15875000Y-90170000D03*
X15875000Y-92710000D03*
X15875000Y-95250000D03*
D21*
X17986000Y-88440000D03*
D22*
X17986000Y-90440000D03*
X17986000Y-92440000D03*
X17986000Y-94440000D03*
D13*
X27305000Y-87630000D03*
D14*
X27305000Y-90170000D03*
X27305000Y-92710000D03*
X27305000Y-95250000D03*
D21*
X29416000Y-88440000D03*
D22*
X29416000Y-90440000D03*
X29416000Y-92440000D03*
X29416000Y-94440000D03*
D13*
X104775000Y-72390000D03*
D14*
X107315000Y-72390000D03*
X109855000Y-72390000D03*
X112395000Y-72390000D03*
D21*
X105585000Y-70279000D03*
D22*
X107585000Y-70279000D03*
X109585000Y-70279000D03*
X111585000Y-70279000D03*
D13*
X104775000Y-62865000D03*
D14*
X107315000Y-62865000D03*
X109855000Y-62865000D03*
X112395000Y-62865000D03*
D21*
X105585000Y-60754000D03*
D22*
X107585000Y-60754000D03*
X109585000Y-60754000D03*
X111585000Y-60754000D03*
D18*
X8255000Y-27305000D03*
D19*
X8255000Y-32385000D03*
D18*
X8255000Y-42545000D03*
D19*
X8255000Y-37465000D03*
D13*
X104775000Y-81915000D03*
D14*
X107315000Y-81915000D03*
X109855000Y-81915000D03*
X112395000Y-81915000D03*
D21*
X105585000Y-79804000D03*
D22*
X107585000Y-79804000D03*
X109585000Y-79804000D03*
X111585000Y-79804000D03*
D13*
X104775000Y-91440000D03*
D14*
X107315000Y-91440000D03*
X109855000Y-91440000D03*
X112395000Y-91440000D03*
D21*
X105585000Y-89329000D03*
D22*
X107585000Y-89329000D03*
X109585000Y-89329000D03*
X111585000Y-89329000D03*
D13*
X49530000Y-87630000D03*
D14*
X49530000Y-90170000D03*
X49530000Y-92710000D03*
X49530000Y-95250000D03*
D21*
X51641000Y-88440000D03*
D22*
X51641000Y-90440000D03*
X51641000Y-92440000D03*
X51641000Y-94440000D03*
D18*
X8255000Y-52705000D03*
D19*
X8255000Y-47625000D03*
D18*
X8255000Y-57785000D03*
D19*
X8255000Y-62865000D03*
D13*
X38100000Y-87630000D03*
D14*
X38100000Y-90170000D03*
X38100000Y-92710000D03*
X38100000Y-95250000D03*
D21*
X40211000Y-88440000D03*
D22*
X40211000Y-90440000D03*
X40211000Y-92440000D03*
X40211000Y-94440000D03*
D14*
X15875000Y-26035000D03*
X15875000Y-33655000D03*
X19050000Y-26035000D03*
X19050000Y-33655000D03*
X76835000Y-52705000D03*
X84455000Y-52705000D03*
X86995000Y-52705000D03*
X94615000Y-52705000D03*
X15875000Y-43815000D03*
X15875000Y-36195000D03*
X62230000Y-19685000D03*
X62230000Y-27305000D03*
X61595000Y-37465000D03*
X69215000Y-37465000D03*
X83820000Y-11430000D03*
X91440000Y-11430000D03*
X19050000Y-49530000D03*
X19050000Y-57150000D03*
X35560000Y-47625000D03*
X35560000Y-55245000D03*
D15*
X38100000Y-69850000D03*
X48260000Y-72390000D03*
X38100000Y-74930000D03*
X40386000Y-72390000D03*
D23*
X69215000Y-13335000D03*
D24*
X66675000Y-13335000D03*
D14*
X113665000Y-16510000D03*
X113665000Y-21590000D03*
X106045000Y-16510000D03*
X106045000Y-21590000D03*
D19*
X67952620Y-8229600D03*
X64871600Y-8229600D03*
X70952360Y-8229600D03*
D25*
X61452760Y-8229600D03*
X74452480Y-8229600D03*
D14*
X113665000Y-28575000D03*
X113665000Y-33655000D03*
X106045000Y-28575000D03*
X106045000Y-33655000D03*
D26*
X76835000Y-73025000D03*
D27*
X76835000Y-75565000D03*
X76835000Y-78105000D03*
X76835000Y-80645000D03*
X76835000Y-83185000D03*
X76835000Y-85725000D03*
X76835000Y-88265000D03*
X76835000Y-90805000D03*
X84455000Y-90805000D03*
X84455000Y-88265000D03*
X84455000Y-85725000D03*
X84455000Y-83185000D03*
X84455000Y-80645000D03*
X84455000Y-78105000D03*
X84455000Y-75565000D03*
X84455000Y-73025000D03*
D26*
X27940000Y-17145000D03*
D27*
X27940000Y-19685000D03*
X27940000Y-22225000D03*
X27940000Y-24765000D03*
X35560000Y-24765000D03*
X35560000Y-22225000D03*
X35560000Y-19685000D03*
X35560000Y-17145000D03*
D26*
X24130000Y-69215000D03*
D27*
X24130000Y-71755000D03*
X24130000Y-74295000D03*
X24130000Y-76835000D03*
X31750000Y-76835000D03*
X31750000Y-74295000D03*
X31750000Y-71755000D03*
X31750000Y-69215000D03*
D19*
X8255000Y-67945000D03*
D18*
X8255000Y-78105000D03*
D19*
X8255000Y-73025000D03*
D26*
X24130000Y-50165000D03*
D27*
X24130000Y-52705000D03*
X31750000Y-52705000D03*
X31750000Y-50165000D03*
D28*
X113030000Y-40005000D03*
D29*
X113030000Y-42545000D03*
X113030000Y-45085000D03*
X113030000Y-47625000D03*
X113030000Y-50165000D03*
X113030000Y-52705000D03*
D11*
X106030000Y-38505000D03*
X106030000Y-55505000D03*
D30*
X80645000Y-22225000D03*
D31*
X83185000Y-22225000D03*
X85725000Y-22225000D03*
X88265000Y-22225000D03*
X90805000Y-22225000D03*
X93345000Y-22225000D03*
D32*
X79895000Y-19475000D03*
X94395000Y-19475000D03*
D33*
X48260000Y-41910000D03*
X48260000Y-39370000D03*
D34*
X48260000Y-44450000D03*
D33*
X101600000Y-10160000D03*
X104140000Y-10160000D03*
D34*
X106680000Y-10160000D03*
M02*
